<?xml version="1.0" encoding="UTF-8"?>
<!DOCTYPE svg PUBLIC "-//W3C//DTD SVG 1.1//EN" "http://www.w3.org/Graphics/SVG/1.1/DTD/svg11.dtd">
<svg xmlns="http://www.w3.org/2000/svg" version="1.1" width="89px" height="54px" style="shape-rendering:geometricPrecision; text-rendering:geometricPrecision; image-rendering:optimizeQuality; fill-rule:evenodd; clip-rule:evenodd" xmlns:xlink="http://www.w3.org/1999/xlink">
<g><path style="opacity:1" fill="#fbfbfb" d="M -0.5,-0.5 C 29.1667,-0.5 58.8333,-0.5 88.5,-0.5C 88.5,17.5 88.5,35.5 88.5,53.5C 58.8333,53.5 29.1667,53.5 -0.5,53.5C -0.5,35.5 -0.5,17.5 -0.5,-0.5 Z"/></g>
<g><path style="opacity:1" fill="#3e3d3d" d="M 35.5,5.5 C 25.3194,5.17265 15.3194,5.50598 5.5,6.5C 4.95691,6.44001 4.62358,6.10667 4.5,5.5C 14.9925,4.17682 25.3258,4.17682 35.5,5.5 Z"/></g>
<g><path style="opacity:1" fill="#3c3c3c" d="M 58.5,4.5 C 52.8333,5.16667 47.1667,5.83333 41.5,6.5C 40.9569,6.44001 40.6236,6.10667 40.5,5.5C 46.4632,4.50408 52.4632,4.17075 58.5,4.5 Z"/></g>
<g><path style="opacity:1" fill="#171717" d="M 5.5,6.5 C 15.3194,5.50598 25.3194,5.17265 35.5,5.5C 36.205,8.24432 36.205,10.911 35.5,13.5C 32.2136,6.77434 27.0469,4.77434 20,7.5C 19.5006,12.8229 19.334,18.1563 19.5,23.5C 22.8499,23.665 26.1832,23.4983 29.5,23C 32.3931,18.3276 33.7264,18.9942 33.5,25C 33.7264,31.0058 32.3931,31.6724 29.5,27C 26.1832,26.5017 22.8499,26.335 19.5,26.5C 19.334,31.8437 19.5006,37.1771 20,42.5C 21.5095,43.0897 23.0095,43.7564 24.5,44.5C 18.1667,45.8333 11.8333,45.8333 5.5,44.5C 6.62826,43.7379 7.79492,43.0712 9,42.5C 9.83252,30.8191 9.66585,19.1524 8.5,7.5C 7.58317,6.87277 6.58317,6.53944 5.5,6.5 Z"/></g>
<g><path style="opacity:1" fill="#0b0b0b" d="M 58.5,4.5 C 59.0431,4.55999 59.3764,4.89333 59.5,5.5C 57.8164,6.14973 56.4831,7.14973 55.5,8.5C 54.5119,13.6405 54.1786,18.9738 54.5,24.5C 59.5,24.5 64.5,24.5 69.5,24.5C 69.8214,18.9738 69.4881,13.6405 68.5,8.5C 67.5169,7.14973 66.1836,6.14973 64.5,5.5C 70.8333,4.16667 77.1667,4.16667 83.5,5.5C 81.8068,6.22833 80.3068,7.22833 79,8.5C 78.3333,19.5 78.3333,30.5 79,41.5C 80.3068,42.7717 81.8068,43.7717 83.5,44.5C 77.1667,45.8333 70.8333,45.8333 64.5,44.5C 66.1932,43.7717 67.6932,42.7717 69,41.5C 69.4993,36.5111 69.6659,31.5111 69.5,26.5C 64.5,26.5 59.5,26.5 54.5,26.5C 54.3341,31.5111 54.5007,36.5111 55,41.5C 56.3068,42.7717 57.8068,43.7717 59.5,44.5C 53.1667,45.8333 46.8333,45.8333 40.5,44.5C 41.7357,43.6433 43.069,42.9766 44.5,42.5C 45.6658,31.1813 45.8325,19.848 45,8.5C 44.1841,7.17723 43.0174,6.51056 41.5,6.5C 47.1667,5.83333 52.8333,5.16667 58.5,4.5 Z"/></g>
<g><path style="opacity:1" fill="#909090" d="M 55.5,8.5 C 55.5,13.5 55.5,18.5 55.5,23.5C 59.8333,23.5 64.1667,23.5 68.5,23.5C 68.5,18.5 68.5,13.5 68.5,8.5C 69.4881,13.6405 69.8214,18.9738 69.5,24.5C 64.5,24.5 59.5,24.5 54.5,24.5C 54.1786,18.9738 54.5119,13.6405 55.5,8.5 Z"/></g>
</svg>
