<?xml version="1.0" encoding="UTF-8"?>
<!DOCTYPE svg PUBLIC "-//W3C//DTD SVG 1.1//EN" "http://www.w3.org/Graphics/SVG/1.1/DTD/svg11.dtd">
<svg xmlns="http://www.w3.org/2000/svg" version="1.1" width="490px" height="53px" style="shape-rendering:geometricPrecision; text-rendering:geometricPrecision; image-rendering:optimizeQuality; fill-rule:evenodd; clip-rule:evenodd" xmlns:xlink="http://www.w3.org/1999/xlink">
<g><path style="opacity:0.012" fill="#dddfde" d="M -0.5,-0.5 C -0.166667,-0.5 0.166667,-0.5 0.5,-0.5C 0.31468,0.170143 -0.0186536,0.170143 -0.5,-0.5 Z"/></g>
<g><path style="opacity:0.012" fill="#dedfdd" d="M 10.5,-0.5 C 11.1667,-0.5 11.8333,-0.5 12.5,-0.5C 11.8333,0.833333 11.1667,0.833333 10.5,-0.5 Z"/></g>
<g><path style="opacity:0.012" fill="#dededd" d="M 18.5,-0.5 C 19.1667,-0.5 19.8333,-0.5 20.5,-0.5C 19.8333,0.833333 19.1667,0.833333 18.5,-0.5 Z"/></g>
<g><path style="opacity:0.012" fill="#dddfde" d="M 25.5,-0.5 C 26.1667,-0.5 26.8333,-0.5 27.5,-0.5C 26.8333,0.833333 26.1667,0.833333 25.5,-0.5 Z"/></g>
<g><path style="opacity:0.012" fill="#dedfdd" d="M 38.5,-0.5 C 38.8333,-0.5 39.1667,-0.5 39.5,-0.5C 39.3147,0.170143 38.9813,0.170143 38.5,-0.5 Z"/></g>
<g><path style="opacity:0.012" fill="#dddfde" d="M 41.5,-0.5 C 41.8333,-0.5 42.1667,-0.5 42.5,-0.5C 42.3147,0.170143 41.9813,0.170143 41.5,-0.5 Z"/></g>
<g><path style="opacity:0.012" fill="#dfdede" d="M 46.5,-0.5 C 47.1667,-0.5 47.8333,-0.5 48.5,-0.5C 47.8333,0.833333 47.1667,0.833333 46.5,-0.5 Z"/></g>
<g><path style="opacity:0.012" fill="#dddfde" d="M 52.5,-0.5 C 53.1667,-0.5 53.8333,-0.5 54.5,-0.5C 53.8333,0.833333 53.1667,0.833333 52.5,-0.5 Z"/></g>
<g><path style="opacity:0.012" fill="#dedfdd" d="M 65.5,-0.5 C 65.8333,-0.5 66.1667,-0.5 66.5,-0.5C 66.3147,0.170143 65.9813,0.170143 65.5,-0.5 Z"/></g>
<g><path style="opacity:0.012" fill="#dfdede" d="M 72.5,-0.5 C 73.5,-0.5 74.5,-0.5 75.5,-0.5C 74.5,0.833333 73.5,0.833333 72.5,-0.5 Z"/></g>
<g><path style="opacity:0.012" fill="#dddfde" d="M 79.5,-0.5 C 80.1667,-0.5 80.8333,-0.5 81.5,-0.5C 80.8333,0.833333 80.1667,0.833333 79.5,-0.5 Z"/></g>
<g><path style="opacity:0.012" fill="#dedfdd" d="M 92.5,-0.5 C 92.8333,-0.5 93.1667,-0.5 93.5,-0.5C 93.3147,0.170143 92.9813,0.170143 92.5,-0.5 Z"/></g>
<g><path style="opacity:0.012" fill="#dddfde" d="M 95.5,-0.5 C 95.8333,-0.5 96.1667,-0.5 96.5,-0.5C 96.3147,0.170143 95.9813,0.170143 95.5,-0.5 Z"/></g>
<g><path style="opacity:0.012" fill="#dfdede" d="M 100.5,-0.5 C 101.167,-0.5 101.833,-0.5 102.5,-0.5C 101.833,0.833333 101.167,0.833333 100.5,-0.5 Z"/></g>
<g><path style="opacity:0.012" fill="#dddfde" d="M 107.5,-0.5 C 107.833,-0.5 108.167,-0.5 108.5,-0.5C 108.315,0.170143 107.981,0.170143 107.5,-0.5 Z"/></g>
<g><path style="opacity:0.012" fill="#dedfdd" d="M 119.5,-0.5 C 119.833,-0.5 120.167,-0.5 120.5,-0.5C 120.315,0.170143 119.981,0.170143 119.5,-0.5 Z"/></g>
<g><path style="opacity:0.012" fill="#dddfde" d="M 122.5,-0.5 C 122.833,-0.5 123.167,-0.5 123.5,-0.5C 123.315,0.170143 122.981,0.170143 122.5,-0.5 Z"/></g>
<g><path style="opacity:0.012" fill="#dededd" d="M 127.5,-0.5 C 128.167,-0.5 128.833,-0.5 129.5,-0.5C 128.833,0.833333 128.167,0.833333 127.5,-0.5 Z"/></g>
<g><path style="opacity:0.012" fill="#dddfde" d="M 134.5,-0.5 C 134.833,-0.5 135.167,-0.5 135.5,-0.5C 135.315,0.170143 134.981,0.170143 134.5,-0.5 Z"/></g>
<g><path style="opacity:0.012" fill="#dedfdd" d="M 147.5,-0.5 C 147.833,-0.5 148.167,-0.5 148.5,-0.5C 148.315,0.170143 147.981,0.170143 147.5,-0.5 Z"/></g>
<g><path style="opacity:0.012" fill="#dddfde" d="M 149.5,-0.5 C 150.167,-0.5 150.833,-0.5 151.5,-0.5C 150.833,0.833333 150.167,0.833333 149.5,-0.5 Z"/></g>
<g><path style="opacity:0.012" fill="#dededd" d="M 154.5,-0.5 C 155.167,-0.5 155.833,-0.5 156.5,-0.5C 155.833,0.833333 155.167,0.833333 154.5,-0.5 Z"/></g>
<g><path style="opacity:0.012" fill="#dddfde" d="M 161.5,-0.5 C 162.167,-0.5 162.833,-0.5 163.5,-0.5C 162.833,0.833333 162.167,0.833333 161.5,-0.5 Z"/></g>
<g><path style="opacity:0.012" fill="#dedfdd" d="M 174.5,-0.5 C 174.833,-0.5 175.167,-0.5 175.5,-0.5C 175.315,0.170143 174.981,0.170143 174.5,-0.5 Z"/></g>
<g><path style="opacity:0.012" fill="#dddfde" d="M 177.5,-0.5 C 177.833,-0.5 178.167,-0.5 178.5,-0.5C 178.315,0.170143 177.981,0.170143 177.5,-0.5 Z"/></g>
<g><path style="opacity:0.012" fill="#dededd" d="M 182.5,-0.5 C 182.833,-0.5 183.167,-0.5 183.5,-0.5C 183.315,0.170143 182.981,0.170143 182.5,-0.5 Z"/></g>
<g><path style="opacity:0.012" fill="#dddfde" d="M 188.5,-0.5 C 188.833,-0.5 189.167,-0.5 189.5,-0.5C 189.315,0.170143 188.981,0.170143 188.5,-0.5 Z"/></g>
<g><path style="opacity:0.012" fill="#dedfdd" d="M 201.5,-0.5 C 202.167,-0.5 202.833,-0.5 203.5,-0.5C 202.833,0.833333 202.167,0.833333 201.5,-0.5 Z"/></g>
<g><path style="opacity:0.012" fill="#dddfde" d="M 204.5,-0.5 C 204.833,-0.5 205.167,-0.5 205.5,-0.5C 205.315,0.170143 204.981,0.170143 204.5,-0.5 Z"/></g>
<g><path style="opacity:0.012" fill="#dfdede" d="M 209.5,-0.5 C 210.167,-0.5 210.833,-0.5 211.5,-0.5C 210.833,0.833333 210.167,0.833333 209.5,-0.5 Z"/></g>
<g><path style="opacity:0.012" fill="#dddfde" d="M 215.5,-0.5 C 216.167,-0.5 216.833,-0.5 217.5,-0.5C 216.833,0.833333 216.167,0.833333 215.5,-0.5 Z"/></g>
<g><path style="opacity:0.012" fill="#dedfdd" d="M 229.5,-0.5 C 229.833,-0.5 230.167,-0.5 230.5,-0.5C 230.315,0.170143 229.981,0.170143 229.5,-0.5 Z"/></g>
<g><path style="opacity:0.012" fill="#dddfde" d="M 231.5,-0.5 C 231.833,-0.5 232.167,-0.5 232.5,-0.5C 232.315,0.170143 231.981,0.170143 231.5,-0.5 Z"/></g>
<g><path style="opacity:0.012" fill="#dfdede" d="M 236.5,-0.5 C 237.167,-0.5 237.833,-0.5 238.5,-0.5C 237.833,0.833333 237.167,0.833333 236.5,-0.5 Z"/></g>
<g><path style="opacity:0.012" fill="#dddfde" d="M 242.5,-0.5 C 243.167,-0.5 243.833,-0.5 244.5,-0.5C 243.833,0.833333 243.167,0.833333 242.5,-0.5 Z"/></g>
<g><path style="opacity:0.012" fill="#dedfdd" d="M 256.5,-0.5 C 256.833,-0.5 257.167,-0.5 257.5,-0.5C 257.315,0.170143 256.981,0.170143 256.5,-0.5 Z"/></g>
<g><path style="opacity:0.012" fill="#dddede" d="M 258.5,-0.5 C 258.833,-0.5 259.167,-0.5 259.5,-0.5C 259.315,0.170143 258.981,0.170143 258.5,-0.5 Z"/></g>
<g><path style="opacity:0.012" fill="#dfdede" d="M 263.5,-0.5 C 264.167,-0.5 264.833,-0.5 265.5,-0.5C 264.833,0.833333 264.167,0.833333 263.5,-0.5 Z"/></g>
<g><path style="opacity:0.012" fill="#dddfde" d="M 270.5,-0.5 C 270.833,-0.5 271.167,-0.5 271.5,-0.5C 271.315,0.170143 270.981,0.170143 270.5,-0.5 Z"/></g>
<g><path style="opacity:0.012" fill="#dedfdd" d="M 283.5,-0.5 C 283.833,-0.5 284.167,-0.5 284.5,-0.5C 284.315,0.170143 283.981,0.170143 283.5,-0.5 Z"/></g>
<g><path style="opacity:0.012" fill="#dddfde" d="M 285.5,-0.5 C 285.833,-0.5 286.167,-0.5 286.5,-0.5C 286.315,0.170143 285.981,0.170143 285.5,-0.5 Z"/></g>
<g><path style="opacity:0.012" fill="#dedfdd" d="M 291.5,-0.5 C 291.833,-0.5 292.167,-0.5 292.5,-0.5C 292.315,0.170143 291.981,0.170143 291.5,-0.5 Z"/></g>
<g><path style="opacity:0.012" fill="#dddfde" d="M 297.5,-0.5 C 297.833,-0.5 298.167,-0.5 298.5,-0.5C 298.315,0.170143 297.981,0.170143 297.5,-0.5 Z"/></g>
<g><path style="opacity:0.012" fill="#dedfdd" d="M 310.5,-0.5 C 310.833,-0.5 311.167,-0.5 311.5,-0.5C 311.315,0.170143 310.981,0.170143 310.5,-0.5 Z"/></g>
<g><path style="opacity:0.012" fill="#dddede" d="M 312.5,-0.5 C 312.833,-0.5 313.167,-0.5 313.5,-0.5C 313.315,0.170143 312.981,0.170143 312.5,-0.5 Z"/></g>
<g><path style="opacity:0.012" fill="#dededd" d="M 318.5,-0.5 C 318.833,-0.5 319.167,-0.5 319.5,-0.5C 319.315,0.170143 318.981,0.170143 318.5,-0.5 Z"/></g>
<g><path style="opacity:0.012" fill="#dedfdd" d="M 337.5,-0.5 C 337.833,-0.5 338.167,-0.5 338.5,-0.5C 338.315,0.170143 337.981,0.170143 337.5,-0.5 Z"/></g>
<g><path style="opacity:0.012" fill="#dddfde" d="M 339.5,-0.5 C 340.167,-0.5 340.833,-0.5 341.5,-0.5C 340.833,0.833333 340.167,0.833333 339.5,-0.5 Z"/></g>
<g><path style="opacity:0.012" fill="#dfdede" d="M 345.5,-0.5 C 346.167,-0.5 346.833,-0.5 347.5,-0.5C 346.833,0.833333 346.167,0.833333 345.5,-0.5 Z"/></g>
<g><path style="opacity:0.012" fill="#dedfdd" d="M 364.5,-0.5 C 364.833,-0.5 365.167,-0.5 365.5,-0.5C 365.315,0.170143 364.981,0.170143 364.5,-0.5 Z"/></g>
<g><path style="opacity:0.012" fill="#dddfde" d="M 367.5,-0.5 C 367.833,-0.5 368.167,-0.5 368.5,-0.5C 368.315,0.170143 367.981,0.170143 367.5,-0.5 Z"/></g>
<g><path style="opacity:0.012" fill="#dfdede" d="M 372.5,-0.5 C 373.167,-0.5 373.833,-0.5 374.5,-0.5C 373.833,0.833333 373.167,0.833333 372.5,-0.5 Z"/></g>
<g><path style="opacity:0.012" fill="#dedfdd" d="M 391.5,-0.5 C 392.167,-0.5 392.833,-0.5 393.5,-0.5C 392.833,0.833333 392.167,0.833333 391.5,-0.5 Z"/></g>
<g><path style="opacity:0.012" fill="#dddfde" d="M 394.5,-0.5 C 394.833,-0.5 395.167,-0.5 395.5,-0.5C 395.315,0.170143 394.981,0.170143 394.5,-0.5 Z"/></g>
<g><path style="opacity:0.012" fill="#dfdede" d="M 399.5,-0.5 C 400.167,-0.5 400.833,-0.5 401.5,-0.5C 400.833,0.833333 400.167,0.833333 399.5,-0.5 Z"/></g>
<g><path style="opacity:0.012" fill="#dddfde" d="M 406.5,-0.5 C 406.833,-0.5 407.167,-0.5 407.5,-0.5C 407.315,0.170143 406.981,0.170143 406.5,-0.5 Z"/></g>
<g><path style="opacity:0.012" fill="#dddede" d="M 421.5,-0.5 C 421.833,-0.5 422.167,-0.5 422.5,-0.5C 422.315,0.170143 421.981,0.170143 421.5,-0.5 Z"/></g>
<g><path style="opacity:0.012" fill="#dfdede" d="M 426.5,-0.5 C 427.5,-0.5 428.5,-0.5 429.5,-0.5C 428.5,0.833333 427.5,0.833333 426.5,-0.5 Z"/></g>
<g><path style="opacity:0.012" fill="#dddfde" d="M 433.5,-0.5 C 433.833,-0.5 434.167,-0.5 434.5,-0.5C 434.315,0.170143 433.981,0.170143 433.5,-0.5 Z"/></g>
<g><path style="opacity:0.012" fill="#dedfdd" d="M 445.5,-0.5 C 446.167,-0.5 446.833,-0.5 447.5,-0.5C 446.833,0.833333 446.167,0.833333 445.5,-0.5 Z"/></g>
<g><path style="opacity:0.012" fill="#dfdede" d="M 453.5,-0.5 C 454.167,-0.5 454.833,-0.5 455.5,-0.5C 454.833,0.833333 454.167,0.833333 453.5,-0.5 Z"/></g>
<g><path style="opacity:0.012" fill="#dddfde" d="M 460.5,-0.5 C 461.167,-0.5 461.833,-0.5 462.5,-0.5C 461.833,0.833333 461.167,0.833333 460.5,-0.5 Z"/></g>
<g><path style="opacity:0.012" fill="#dedfdd" d="M 473.5,-0.5 C 473.833,-0.5 474.167,-0.5 474.5,-0.5C 474.315,0.170143 473.981,0.170143 473.5,-0.5 Z"/></g>
<g><path style="opacity:0.012" fill="#dddfde" d="M 476.5,-0.5 C 476.833,-0.5 477.167,-0.5 477.5,-0.5C 477.315,0.170143 476.981,0.170143 476.5,-0.5 Z"/></g>
<g><path style="opacity:0.012" fill="#dfdede" d="M 481.5,-0.5 C 482.167,-0.5 482.833,-0.5 483.5,-0.5C 482.833,0.833333 482.167,0.833333 481.5,-0.5 Z"/></g>
<g><path style="opacity:0.012" fill="#dddfde" d="M 487.5,-0.5 C 488.167,-0.5 488.833,-0.5 489.5,-0.5C 489.5,-0.166667 489.5,0.166667 489.5,0.5C 488.508,0.67158 487.842,0.338246 487.5,-0.5 Z"/></g>
<g><path style="opacity:0.507" fill="#838281" d="M -0.5,8.5 C 8.01676,8.17395 16.3501,8.50728 24.5,9.5C 16.3159,9.17428 8.31587,9.50761 0.5,10.5C 0.166667,10.5 -0.166667,10.5 -0.5,10.5C -0.5,9.83333 -0.5,9.16667 -0.5,8.5 Z"/></g>
<g><path style="opacity:0.4" fill="#8d8c8c" d="M 28.5,9.5 C 34.987,8.34602 41.6536,8.17935 48.5,9C 49.7375,9.23209 50.7375,9.73209 51.5,10.5C 43.8678,9.64227 36.2011,9.30894 28.5,9.5 Z"/></g>
<g><path style="opacity:0.475" fill="#8c8c8b" d="M 111.5,10.5 C 107.922,9.41131 104.255,9.24465 100.5,10C 101.416,10.2784 102.082,10.7784 102.5,11.5C 101.5,11.5 100.5,11.5 99.5,11.5C 99.5,10.5 99.5,9.5 99.5,8.5C 103.971,7.91057 107.971,8.57723 111.5,10.5 Z"/></g>
<g><path style="opacity:0.379" fill="#979696" d="M 133.5,10.5 C 129.689,9.35472 125.689,9.18806 121.5,10C 122.737,10.2321 123.737,10.7321 124.5,11.5C 123.167,11.5 121.833,11.5 120.5,11.5C 120.5,10.5 120.5,9.5 120.5,8.5C 125.214,8.17338 129.88,8.50671 134.5,9.5C 134.376,10.1067 134.043,10.44 133.5,10.5 Z"/></g>
<g><path style="opacity:0.384" fill="#939292" d="M 179.5,11.5 C 179.918,10.7784 180.584,10.2784 181.5,10C 177.167,9.33333 172.833,9.33333 168.5,10C 169.416,10.2784 170.082,10.7784 170.5,11.5C 169.448,11.6495 168.448,11.4828 167.5,11C 166.167,10.3333 166.167,9.66667 167.5,9C 172.489,8.50074 177.489,8.33407 182.5,8.5C 182.5,9.5 182.5,10.5 182.5,11.5C 181.5,11.5 180.5,11.5 179.5,11.5 Z"/></g>
<g><path style="opacity:0.381" fill="#989797" d="M 199.5,11.5 C 199.918,10.7784 200.584,10.2784 201.5,10C 196.648,9.18492 191.981,9.35159 187.5,10.5C 186.957,10.44 186.624,10.1067 186.5,9.5C 191.792,8.50515 197.125,8.17182 202.5,8.5C 202.5,9.5 202.5,10.5 202.5,11.5C 201.5,11.5 200.5,11.5 199.5,11.5 Z"/></g>
<g><path style="opacity:0.385" fill="#989796" d="M 304.5,10.5 C 299.833,9.16667 295.167,9.16667 290.5,10.5C 289.957,10.44 289.624,10.1067 289.5,9.5C 294.833,8.16667 300.167,8.16667 305.5,9.5C 305.376,10.1067 305.043,10.44 304.5,10.5 Z"/></g>
<g><path style="opacity:0.381" fill="#959595" d="M 324.5,10.5 C 320.019,9.35159 315.352,9.18492 310.5,10C 311.416,10.2784 312.082,10.7784 312.5,11.5C 311.5,11.5 310.5,11.5 309.5,11.5C 309.5,10.5 309.5,9.5 309.5,8.5C 314.875,8.17182 320.208,8.50515 325.5,9.5C 325.376,10.1067 325.043,10.44 324.5,10.5 Z"/></g>
<g><path style="opacity:0.506" fill="#848282" d="M 352.5,9.5 C 344.493,9.33362 336.493,9.50029 328.5,10C 329.416,10.2784 330.082,10.7784 330.5,11.5C 329.448,11.6495 328.448,11.4828 327.5,11C 326.167,10.3333 326.167,9.66667 327.5,9C 336.01,8.17678 344.344,8.34345 352.5,9.5 Z"/></g>
<g><path style="opacity:0.494" fill="#8b8a8a" d="M 379.5,10.5 C 377.708,10.634 376.042,10.3007 374.5,9.5C 368.824,9.33391 363.157,9.50058 357.5,10C 358.416,10.2784 359.082,10.7784 359.5,11.5C 358.448,11.6495 357.448,11.4828 356.5,11C 355.167,10.3333 355.167,9.66667 356.5,9C 363.167,8.33333 369.833,8.33333 376.5,9C 377.737,9.23209 378.737,9.73209 379.5,10.5 Z"/></g>
<g><path style="opacity:0.384" fill="#969695" d="M 439.5,11.5 C 439.918,10.7784 440.584,10.2784 441.5,10C 436.648,9.18492 431.981,9.35159 427.5,10.5C 426.957,10.44 426.624,10.1067 426.5,9.5C 431.792,8.50515 437.125,8.17182 442.5,8.5C 442.5,9.5 442.5,10.5 442.5,11.5C 441.5,11.5 440.5,11.5 439.5,11.5 Z"/></g>
<g><path style="opacity:0.537" fill="#919090" d="M 474.5,9.5 C 474.167,9.5 473.833,9.5 473.5,9.5C 467.824,9.33391 462.157,9.50058 456.5,10C 457.416,10.2784 458.082,10.7784 458.5,11.5C 457.5,11.5 456.5,11.5 455.5,11.5C 455.5,10.5 455.5,9.5 455.5,8.5C 462.022,8.1765 468.355,8.50984 474.5,9.5 Z"/></g>
<g><path style="opacity:1" fill="#1f1f1f" d="M 0.5,10.5 C 8.31587,9.50761 16.3159,9.17428 24.5,9.5C 25.4511,10.9187 25.7845,12.5853 25.5,14.5C 25.1583,15.3382 24.4916,15.6716 23.5,15.5C 22.7101,14.2058 21.7101,13.0391 20.5,12C 17.5184,11.502 14.5184,11.3354 11.5,11.5C 11.7693,15.9315 11.436,20.2648 10.5,24.5C 13.3054,25.3195 16.3054,25.8195 19.5,26C 16.5184,26.498 13.5184,26.6646 10.5,26.5C 10.1795,31.6946 10.5128,36.6946 11.5,41.5C 12.791,41.2627 13.791,41.596 14.5,42.5C 9.83333,43.8333 5.16667,43.8333 0.5,42.5C 1.4959,42.5858 2.32924,42.2524 3,41.5C 3.66667,31.5 3.66667,21.5 3,11.5C 2.32924,10.7476 1.4959,10.4142 0.5,10.5 Z"/></g>
<g><path style="opacity:0.999" fill="#262626" d="M 28.5,9.5 C 36.2011,9.30894 43.8678,9.64227 51.5,10.5C 57.2072,12.958 59.0406,17.2913 57,23.5C 55.332,27.1655 52.4987,29.3322 48.5,30C 51.0542,33.6198 53.7209,37.1198 56.5,40.5C 56.8212,42.0481 57.8212,42.7148 59.5,42.5C 59.5,43.1667 59.5,43.8333 59.5,44.5C 55.9103,45.2698 52.5769,44.4365 49.5,42C 46.3333,38.1667 43.1667,34.3333 40,30.5C 39.5017,33.8168 39.335,37.1501 39.5,40.5C 39.8212,42.0481 40.8212,42.7148 42.5,42.5C 38.3537,43.647 34.0204,43.8136 29.5,43C 30.4158,42.7216 31.0825,42.2216 31.5,41.5C 31.5,31.5 31.5,21.5 31.5,11.5C 29.8212,11.7148 28.8212,11.0481 28.5,9.5 Z M 45.5,27.5 C 43.5,27.8333 41.5,28.1667 39.5,28.5C 39.5,22.8333 39.5,17.1667 39.5,11.5C 48.3099,10.1427 51.8099,13.8094 50,22.5C 48.975,24.687 47.475,26.3536 45.5,27.5 Z"/></g>
<g><path style="opacity:1" fill="#1b1b1b" d="M 91.5,36.5 C 90.9162,39.285 91.9162,40.9517 94.5,41.5C 94.9175,42.2216 95.5842,42.7216 96.5,43C 91.8333,43.6667 87.1667,43.6667 82.5,43C 83.4158,42.7216 84.0825,42.2216 84.5,41.5C 84.5,39.8333 84.5,38.1667 84.5,36.5C 84.67,35.1779 84.3366,34.0113 83.5,33C 79.3112,32.1881 75.3112,32.3547 71.5,33.5C 71.6716,34.4916 71.3382,35.1583 70.5,35.5C 69.0335,38.2583 68.3668,37.925 68.5,34.5C 68.4326,33.0413 68.7659,31.7079 69.5,30.5C 70.1174,30.3893 70.6174,30.056 71,29.5C 71.2784,30.4158 71.7784,31.0825 72.5,31.5C 75.8333,31.5 79.1667,31.5 82.5,31.5C 80.8679,26.9798 79.5346,22.3131 78.5,17.5C 77.2804,15.7179 76.6138,13.7179 76.5,11.5C 77.3559,8.48693 79.1892,7.82026 82,9.5C 85.667,18.3348 88.8337,27.3348 91.5,36.5 Z"/></g>
<g><path style="opacity:1" fill="#262626" d="M 111.5,10.5 C 114.313,13.4459 116.646,16.7792 118.5,20.5C 118.427,22.0269 119.094,23.0269 120.5,23.5C 120.427,25.0269 121.094,26.0269 122.5,26.5C 123.906,26.9731 124.573,27.9731 124.5,29.5C 124.783,30.2891 125.283,30.9558 126,31.5C 126.167,28.1667 126.333,24.8333 126.5,21.5C 126.486,17.7614 125.82,14.428 124.5,11.5C 123.737,10.7321 122.737,10.2321 121.5,10C 125.689,9.18806 129.689,9.35472 133.5,10.5C 131.553,11.1504 129.887,12.317 128.5,14C 129.651,23.7559 129.818,33.5893 129,43.5C 128.586,43.9574 128.086,44.2907 127.5,44.5C 120.422,36.0049 114.088,27.0049 108.5,17.5C 108.217,16.7109 107.717,16.0442 107,15.5C 106.177,24.0104 106.343,32.3437 107.5,40.5C 108.167,40.8333 108.833,41.1667 109.5,41.5C 109.918,42.2216 110.584,42.7216 111.5,43C 107.311,43.8119 103.311,43.6453 99.5,42.5C 100.209,41.596 101.209,41.2627 102.5,41.5C 103.828,36.8806 104.494,31.8806 104.5,26.5C 104.494,21.1194 103.828,16.1194 102.5,11.5C 102.082,10.7784 101.416,10.2784 100.5,10C 104.255,9.24465 107.922,9.41131 111.5,10.5 Z"/></g>
<g><path style="opacity:1" fill="#272727" d="M 153.5,8.5 C 153.5,8.83333 153.5,9.16667 153.5,9.5C 151.901,9.23219 150.568,9.56552 149.5,10.5C 144.044,13.6439 141.711,18.4772 142.5,25C 142.035,31.7927 144.368,37.2927 149.5,41.5C 150.842,42.793 152.509,43.6264 154.5,44C 152.19,44.4966 149.857,44.6633 147.5,44.5C 141.255,42.7566 137.088,38.7566 135,32.5C 132.107,18.9215 137.274,10.5882 150.5,7.5C 151.726,7.51954 152.726,7.85287 153.5,8.5 Z"/></g>
<g><path style="opacity:0.663" fill="#6b6b6b" d="M 149.5,10.5 C 150.568,9.56552 151.901,9.23219 153.5,9.5C 154.167,10.1667 154.833,10.8333 155.5,11.5C 153.5,11.1667 151.5,10.8333 149.5,10.5 Z"/></g>
<g><path style="opacity:1" fill="#3a3a3a" d="M 153.5,8.5 C 156.5,8.5 159.5,8.5 162.5,8.5C 162.833,11.1667 163.167,13.8333 163.5,16.5C 163.5,17.8333 162.833,18.5 161.5,18.5C 160.19,15.5268 158.19,13.1935 155.5,11.5C 154.833,10.8333 154.167,10.1667 153.5,9.5C 153.5,9.16667 153.5,8.83333 153.5,8.5 Z"/></g>
<g><path style="opacity:1" fill="#0f1010" d="M 179.5,11.5 C 179.5,12.1667 179.167,12.5 178.5,12.5C 177.167,16.8333 177.167,21.1667 178.5,25.5C 178.5,26.1667 178.5,26.8333 178.5,27.5C 178.226,32.263 178.559,36.9296 179.5,41.5C 179.918,42.2216 180.584,42.7216 181.5,43C 177.167,43.6667 172.833,43.6667 168.5,43C 169.416,42.7216 170.082,42.2216 170.5,41.5C 171.117,41.3893 171.617,41.056 172,40.5C 172.667,31.1667 172.667,21.8333 172,12.5C 171.617,11.944 171.117,11.6107 170.5,11.5C 170.082,10.7784 169.416,10.2784 168.5,10C 172.833,9.33333 177.167,9.33333 181.5,10C 180.584,10.2784 179.918,10.7784 179.5,11.5 Z"/></g>
<g><path style="opacity:1" fill="#181818" d="M 199.5,11.5 C 198.527,21.0838 198.194,30.7504 198.5,40.5C 198.821,42.0481 199.821,42.7148 201.5,42.5C 196.833,43.8333 192.167,43.8333 187.5,42.5C 188.209,41.596 189.209,41.2627 190.5,41.5C 191.117,41.3893 191.617,41.056 192,40.5C 192.167,38.3333 192.333,36.1667 192.5,34C 192.217,26.9112 192.051,19.7445 192,12.5C 191.617,11.944 191.117,11.6107 190.5,11.5C 189.209,11.7373 188.209,11.404 187.5,10.5C 191.981,9.35159 196.648,9.18492 201.5,10C 200.584,10.2784 199.918,10.7784 199.5,11.5 Z"/></g>
<g><path style="opacity:1" fill="#222222" d="M 204.5,42.5 C 206.483,42.8432 207.817,42.1765 208.5,40.5C 209.166,35.8453 209.499,31.0119 209.5,26C 209.494,20.7843 208.827,15.951 207.5,11.5C 206.5,11.5 205.5,11.5 204.5,11.5C 204.5,10.5 204.5,9.5 204.5,8.5C 210.021,8.05428 215.355,8.55428 220.5,10C 219.109,11.02 217.609,11.8534 216,12.5C 215.333,21.8333 215.333,31.1667 216,40.5C 217.609,41.1466 219.109,41.98 220.5,43C 217.861,44.1182 215.027,44.6182 212,44.5C 209.071,44.4752 206.571,43.8086 204.5,42.5 Z"/></g>
<g><path style="opacity:1" fill="#202020" d="M 235.5,8.5 C 234.5,9.16667 233.5,9.83333 232.5,10.5C 229.67,12.3623 228.837,15.0289 230,18.5C 234.247,21.7084 238.747,24.5417 243.5,27C 244.823,27.8159 245.489,28.9826 245.5,30.5C 245.5,33.5 245.5,36.5 245.5,39.5C 244.5,41.1667 243.167,42.5 241.5,43.5C 239.473,43.6621 237.473,43.4955 235.5,43C 237.91,42.9428 239.244,41.7761 239.5,39.5C 240.147,38.7261 240.48,37.7261 240.5,36.5C 240.36,34.9704 239.693,33.9704 238.5,33.5C 236.343,31.5879 234.009,29.9213 231.5,28.5C 231.027,27.0937 230.027,26.427 228.5,26.5C 228.027,25.0937 227.027,24.427 225.5,24.5C 224.21,23.9423 223.377,22.9423 223,21.5C 222.199,18.633 222.366,15.9664 223.5,13.5C 224.833,12.8333 225.833,11.8333 226.5,10.5C 229.117,7.7776 232.117,7.11093 235.5,8.5 Z"/></g>
<g><path style="opacity:0.875" fill="#595858" d="M 235.5,8.5 C 237.5,8.83333 239.5,9.16667 241.5,9.5C 240.5,10.1667 239.5,10.8333 238.5,11.5C 236.565,10.8505 234.565,10.5172 232.5,10.5C 233.5,9.83333 234.5,9.16667 235.5,8.5 Z"/></g>
<g><path style="opacity:1" fill="#242424" d="M 273.5,9.5 C 273.795,11.7354 273.461,13.7354 272.5,15.5C 271.636,14.3117 270.636,13.1451 269.5,12C 266.5,11.3333 263.5,11.3333 260.5,12C 259.536,16.0659 259.203,20.2325 259.5,24.5C 262.518,24.6646 265.518,24.498 268.5,24C 269.047,23.0754 269.713,22.2421 270.5,21.5C 271.48,24.0865 271.813,26.7531 271.5,29.5C 270.833,29.5 270.167,29.5 269.5,29.5C 269.389,28.8826 269.056,28.3826 268.5,28C 265.518,27.502 262.518,27.3354 259.5,27.5C 259.2,32.0986 259.533,36.5986 260.5,41C 264.741,42.1882 268.408,41.3549 271.5,38.5C 272.906,38.0269 273.573,37.0269 273.5,35.5C 274.404,36.209 274.737,37.209 274.5,38.5C 273.549,39.9187 273.216,41.5853 273.5,43.5C 265.167,43.5 256.833,43.5 248.5,43.5C 248.821,41.9519 249.821,41.2852 251.5,41.5C 252.828,36.8806 253.494,31.8806 253.5,26.5C 253.494,21.1194 252.828,16.1194 251.5,11.5C 250.5,11.5 249.5,11.5 248.5,11.5C 248.5,10.5 248.5,9.5 248.5,8.5C 257.017,8.17395 265.35,8.50728 273.5,9.5 Z"/></g>
<g><path style="opacity:1" fill="#272727" d="M 304.5,10.5 C 303.791,11.404 302.791,11.7373 301.5,11.5C 301.334,16.1785 301.501,20.8452 302,25.5C 305.832,24.1998 309.666,24.1998 313.5,25.5C 314.163,23.3587 314.497,21.0254 314.5,18.5C 314.471,15.7305 313.805,13.3972 312.5,11.5C 312.082,10.7784 311.416,10.2784 310.5,10C 315.352,9.18492 320.019,9.35159 324.5,10.5C 323.791,11.404 322.791,11.7373 321.5,11.5C 321.5,21.5 321.5,31.5 321.5,41.5C 322.791,41.2627 323.791,41.596 324.5,42.5C 320.019,43.6484 315.352,43.8151 310.5,43C 311.416,42.7216 312.082,42.2216 312.5,41.5C 313.805,39.6028 314.471,37.2695 314.5,34.5C 314.497,31.9746 314.163,29.6413 313.5,27.5C 309.666,28.8002 305.832,28.8002 302,27.5C 301.501,32.1548 301.334,36.8215 301.5,41.5C 302.791,41.2627 303.791,41.596 304.5,42.5C 299.833,43.8333 295.167,43.8333 290.5,42.5C 291.209,41.596 292.209,41.2627 293.5,41.5C 293.5,31.5 293.5,21.5 293.5,11.5C 292.209,11.7373 291.209,11.404 290.5,10.5C 295.167,9.16667 299.833,9.16667 304.5,10.5 Z"/></g>
<g><path style="opacity:1" fill="#222222" d="M 352.5,9.5 C 352.993,11.8056 353.326,14.139 353.5,16.5C 352.5,16.5 351.5,16.5 350.5,16.5C 350.703,14.6096 350.037,13.1096 348.5,12C 345.183,11.5017 341.85,11.335 338.5,11.5C 337.514,15.97 337.181,20.6367 337.5,25.5C 340.713,25.81 343.713,25.4767 346.5,24.5C 347.167,23.8333 347.833,23.1667 348.5,22.5C 349.833,24.8333 349.833,27.1667 348.5,29.5C 347.5,29.1667 346.833,28.5 346.5,27.5C 343.713,26.5233 340.713,26.19 337.5,26.5C 337.181,31.3633 337.514,36.03 338.5,40.5C 339.152,41.7251 340.319,42.3917 342,42.5C 343.385,42.4857 344.551,42.1524 345.5,41.5C 346.833,40.8333 348.167,40.1667 349.5,39.5C 350.906,39.0269 351.573,38.0269 351.5,36.5C 351.948,34.5354 352.948,34.2021 354.5,35.5C 353.705,38.1444 353.038,40.8111 352.5,43.5C 344.493,43.6664 336.493,43.4997 328.5,43C 329.056,42.6174 329.389,42.1174 329.5,41.5C 330.494,31.6806 330.827,21.6806 330.5,11.5C 330.082,10.7784 329.416,10.2784 328.5,10C 336.493,9.50029 344.493,9.33362 352.5,9.5 Z"/></g>
<g><path style="opacity:1" fill="#1e1f1f" d="M 374.5,9.5 C 374.5,10.1667 374.167,10.5 373.5,10.5C 371.167,10.5 368.833,10.5 366.5,10.5C 366.5,16.5 366.5,22.5 366.5,28.5C 366.833,29.1667 367.167,29.8333 367.5,30.5C 367.5,34.1667 367.5,37.8333 367.5,41.5C 368.791,41.2627 369.791,41.596 370.5,42.5C 365.833,43.8333 361.167,43.8333 356.5,42.5C 357.209,41.596 358.209,41.2627 359.5,41.5C 359.5,31.5 359.5,21.5 359.5,11.5C 359.082,10.7784 358.416,10.2784 357.5,10C 363.157,9.50058 368.824,9.33391 374.5,9.5 Z"/></g>
<g><path style="opacity:1" fill="#1b1b1b" d="M 422.5,41.5 C 422.918,42.2216 423.584,42.7216 424.5,43C 419.833,43.6667 415.167,43.6667 410.5,43C 411.416,42.7216 412.082,42.2216 412.5,41.5C 412.326,39.139 411.993,36.8056 411.5,34.5C 409.777,33.1999 407.61,32.5332 405,32.5C 402.576,32.5296 400.243,32.8629 398,33.5C 397.517,32.552 397.351,31.552 397.5,30.5C 398.222,30.0825 398.722,29.4158 399,28.5C 399.399,28.7284 399.565,29.0618 399.5,29.5C 400.871,30.7868 402.705,31.4535 405,31.5C 406.833,31.1667 408.667,30.8333 410.5,30.5C 408.629,26.2164 406.962,21.883 405.5,17.5C 404.909,16.8485 404.243,16.1818 403.5,15.5C 404.309,13.9291 404.643,12.2624 404.5,10.5C 404.791,9.35089 405.624,8.68423 407,8.5C 407.833,8.83333 408.667,9.16667 409.5,9.5C 413.462,20.4011 417.795,31.0677 422.5,41.5 Z"/></g>
<g><path style="opacity:1" fill="#232323" d="M 439.5,11.5 C 438.527,21.0838 438.194,30.7504 438.5,40.5C 439.152,41.7251 440.319,42.3917 442,42.5C 443.385,42.4857 444.551,42.1524 445.5,41.5C 446.833,40.8333 448.167,40.1667 449.5,39.5C 451.196,37.871 452.196,38.2043 452.5,40.5C 452.5,41.5 452.5,42.5 452.5,43.5C 443.983,43.8261 435.65,43.4927 427.5,42.5C 428.209,41.596 429.209,41.2627 430.5,41.5C 430.5,31.5 430.5,21.5 430.5,11.5C 429.209,11.7373 428.209,11.404 427.5,10.5C 431.981,9.35159 436.648,9.18492 441.5,10C 440.584,10.2784 439.918,10.7784 439.5,11.5 Z"/></g>
<g><path style="opacity:0.999" fill="#191919" d="M 473.5,9.5 C 471.167,10.1667 468.833,10.8333 466.5,11.5C 466.334,21.1724 466.5,30.8391 467,40.5C 467.383,41.056 467.883,41.3893 468.5,41.5C 470.631,42.3138 472.964,42.8138 475.5,43C 472.518,43.498 469.518,43.6646 466.5,43.5C 463.841,43.0826 461.508,42.0826 459.5,40.5C 459.806,30.7504 459.473,21.0838 458.5,11.5C 458.082,10.7784 457.416,10.2784 456.5,10C 462.157,9.50058 467.824,9.33391 473.5,9.5 Z"/></g>
<g><path style="opacity:1" fill="#252525" d="M 374.5,9.5 C 376.042,10.3007 377.708,10.634 379.5,10.5C 385.064,13.0641 386.898,17.3974 385,23.5C 382.891,26.6478 380.058,28.9811 376.5,30.5C 379.499,34.9951 382.999,38.9951 387,42.5C 387.692,43.4368 387.525,44.1034 386.5,44.5C 384.565,43.8505 382.565,43.5172 380.5,43.5C 379.761,43.631 379.094,43.4643 378.5,43C 374.463,39.0424 370.796,34.8758 367.5,30.5C 367.167,29.8333 366.833,29.1667 366.5,28.5C 366.833,28.5 367.167,28.5 367.5,28.5C 375.522,28.318 379.022,24.318 378,16.5C 377.004,14.3395 375.504,12.6728 373.5,11.5C 373.5,11.1667 373.5,10.8333 373.5,10.5C 374.167,10.5 374.5,10.1667 374.5,9.5 Z"/></g>
<g><path style="opacity:0.997" fill="#2b2b2b" d="M 473.5,9.5 C 473.833,9.5 474.167,9.5 474.5,9.5C 481.533,10.0308 486.033,13.6975 488,20.5C 490.359,37.6329 483.192,45.2995 466.5,43.5C 469.518,43.6646 472.518,43.498 475.5,43C 472.964,42.8138 470.631,42.3138 468.5,41.5C 472.192,42.0288 475.358,41.0288 478,38.5C 481.333,30.8333 481.333,23.1667 478,15.5C 474.96,12.0337 471.126,10.7004 466.5,11.5C 468.833,10.8333 471.167,10.1667 473.5,9.5 Z"/></g>
<g><path style="opacity:1" fill="#f9f9f9" d="M -0.5,10.5 C -0.166667,10.5 0.166667,10.5 0.5,10.5C 1.4959,10.4142 2.32924,10.7476 3,11.5C 3.66667,21.5 3.66667,31.5 3,41.5C 2.32924,42.2524 1.4959,42.5858 0.5,42.5C 0.166667,42.5 -0.166667,42.5 -0.5,42.5C -0.5,31.8333 -0.5,21.1667 -0.5,10.5 Z"/></g>
<g><path style="opacity:1" fill="#232222" d="M 243.5,9.5 C 243.802,12.0593 243.468,14.3926 242.5,16.5C 241.197,14.8577 239.864,13.1911 238.5,11.5C 239.5,10.8333 240.5,10.1667 241.5,9.5C 242.167,8.16667 242.833,8.16667 243.5,9.5 Z"/></g>
<g><path style="opacity:0.675" fill="#787777" d="M 226.5,10.5 C 225.833,11.8333 224.833,12.8333 223.5,13.5C 223.5,11.5 224.5,10.5 226.5,10.5 Z"/></g>
<g><path style="opacity:0.18" fill="#c0bfbe" d="M 243.5,9.5 C 244.8,12.0241 244.8,14.6908 243.5,17.5C 242.893,17.3764 242.56,17.0431 242.5,16.5C 243.468,14.3926 243.802,12.0593 243.5,9.5 Z"/></g>
<g><path style="opacity:0.61" fill="#6b6b6b" d="M 312.5,11.5 C 313.805,13.3972 314.471,15.7305 314.5,18.5C 314.497,21.0254 314.163,23.3587 313.5,25.5C 313.774,20.737 313.441,16.0704 312.5,11.5 Z"/></g>
<g><path style="opacity:1" fill="#626262" d="M 170.5,11.5 C 171.117,11.6107 171.617,11.944 172,12.5C 172.667,21.8333 172.667,31.1667 172,40.5C 171.617,41.056 171.117,41.3893 170.5,41.5C 170.5,31.5 170.5,21.5 170.5,11.5 Z"/></g>
<g><path style="opacity:0.76" fill="#4d4d4d" d="M 207.5,11.5 C 208.827,15.951 209.494,20.7843 209.5,26C 209.499,31.0119 209.166,35.8453 208.5,40.5C 208.806,30.7504 208.473,21.0838 207.5,11.5 Z"/></g>
<g><path style="opacity:0.16" fill="#b5b6b6" d="M 373.5,10.5 C 373.5,10.8333 373.5,11.1667 373.5,11.5C 371.5,11.5 369.5,11.5 367.5,11.5C 367.5,17.1667 367.5,22.8333 367.5,28.5C 367.167,28.5 366.833,28.5 366.5,28.5C 366.5,22.5 366.5,16.5 366.5,10.5C 368.833,10.5 371.167,10.5 373.5,10.5 Z"/></g>
<g><path style="opacity:0.749" fill="#8f8e8e" d="M 25.5,14.5 C 26.8847,15.3023 26.718,15.9689 25,16.5C 24.2352,16.4301 23.7352,16.0967 23.5,15.5C 24.4916,15.6716 25.1583,15.3382 25.5,14.5 Z"/></g>
<g><path style="opacity:0.682" fill="#858485" d="M 273.5,9.5 C 274.634,11.9664 274.801,14.633 274,17.5C 273.283,16.9558 272.783,16.2891 272.5,15.5C 273.461,13.7354 273.795,11.7354 273.5,9.5 Z"/></g>
<g><path style="opacity:1" fill="#e6e6e6" d="M 78.5,17.5 C 79.5346,22.3131 80.8679,26.9798 82.5,31.5C 79.1667,31.5 75.8333,31.5 72.5,31.5C 73.4125,26.3369 74.9125,21.3369 77,16.5C 77.3826,17.056 77.8826,17.3893 78.5,17.5 Z"/></g>
<g><path style="opacity:0.075" fill="#cdcdcd" d="M 108.5,17.5 C 107.508,24.9818 107.175,32.6484 107.5,40.5C 106.343,32.3437 106.177,24.0104 107,15.5C 107.717,16.0442 108.217,16.7109 108.5,17.5 Z"/></g>
<g><path style="opacity:0.737" fill="#80807f" d="M 163.5,16.5 C 164.404,17.209 164.737,18.209 164.5,19.5C 163.209,19.7373 162.209,19.404 161.5,18.5C 162.833,18.5 163.5,17.8333 163.5,16.5 Z"/></g>
<g><path style="opacity:0.425" fill="#9c9a9a" d="M 338.5,11.5 C 338.5,15.8333 338.5,20.1667 338.5,24.5C 341.167,24.5 343.833,24.5 346.5,24.5C 343.713,25.4767 340.713,25.81 337.5,25.5C 337.181,20.6367 337.514,15.97 338.5,11.5 Z"/></g>
<g><path style="opacity:1" fill="#e5e5e5" d="M 405.5,17.5 C 406.962,21.883 408.629,26.2164 410.5,30.5C 408.667,30.8333 406.833,31.1667 405,31.5C 402.705,31.4535 400.871,30.7868 399.5,29.5C 401.205,25.3218 403.205,21.3218 405.5,17.5 Z"/></g>
<g><path style="opacity:0.031" fill="#d0d0d0" d="M 102.5,11.5 C 103.828,16.1194 104.494,21.1194 104.5,26.5C 104.494,31.8806 103.828,36.8806 102.5,41.5C 103.833,31.5 103.833,21.5 102.5,11.5 Z"/></g>
<g><path style="opacity:0.62" fill="#7c7c7b" d="M 118.5,20.5 C 119.906,20.9731 120.573,21.9731 120.5,23.5C 119.094,23.0269 118.427,22.0269 118.5,20.5 Z"/></g>
<g><path style="opacity:1" fill="#474747" d="M 404.5,10.5 C 404.643,12.2624 404.309,13.9291 403.5,15.5C 404.243,16.1818 404.909,16.8485 405.5,17.5C 403.205,21.3218 401.205,25.3218 399.5,29.5C 399.565,29.0618 399.399,28.7284 399,28.5C 398.722,29.4158 398.222,30.0825 397.5,30.5C 399.459,23.6199 401.792,16.9532 404.5,10.5 Z"/></g>
<g><path style="opacity:0.251" fill="#aaabab" d="M 124.5,11.5 C 125.82,14.428 126.486,17.7614 126.5,21.5C 126.333,24.8333 126.167,28.1667 126,31.5C 125.283,30.9558 124.783,30.2891 124.5,29.5C 125.806,23.5992 125.806,17.5992 124.5,11.5 Z"/></g>
<g><path style="opacity:1" fill="#696969" d="M 21.5,22.5 C 22.8333,25.1667 22.8333,27.8333 21.5,30.5C 18.8082,27.8578 15.4749,26.8578 11.5,27.5C 11.5,32.1667 11.5,36.8333 11.5,41.5C 10.5128,36.6946 10.1795,31.6946 10.5,26.5C 13.5184,26.6646 16.5184,26.498 19.5,26C 16.3054,25.8195 13.3054,25.3195 10.5,24.5C 14.5025,24.9643 18.1691,24.2976 21.5,22.5 Z"/></g>
<g><path style="opacity:0.031" fill="#b9b8b8" d="M 178.5,12.5 C 178.5,16.5 178.5,20.5 178.5,24.5C 182.371,24.185 186.038,24.5184 189.5,25.5C 185.833,25.5 182.167,25.5 178.5,25.5C 177.167,21.1667 177.167,16.8333 178.5,12.5 Z"/></g>
<g><path style="opacity:0.949" fill="#6e6e6e" d="M 225.5,24.5 C 227.027,24.427 228.027,25.0937 228.5,26.5C 226.973,26.573 225.973,25.9063 225.5,24.5 Z"/></g>
<g><path style="opacity:0.506" fill="#807e7d" d="M 348.5,22.5 C 348.56,21.9569 348.893,21.6236 349.5,21.5C 350.833,24.8333 350.833,28.1667 349.5,31.5C 348.702,31.0431 348.369,30.3764 348.5,29.5C 349.833,27.1667 349.833,24.8333 348.5,22.5 Z"/></g>
<g><path style="opacity:0.163" fill="#b2b1b1" d="M 21.5,22.5 C 21.56,21.9569 21.8933,21.6236 22.5,21.5C 23.8333,24.8333 23.8333,28.1667 22.5,31.5C 21.8933,31.3764 21.56,31.0431 21.5,30.5C 22.8333,27.8333 22.8333,25.1667 21.5,22.5 Z"/></g>
<g><path style="opacity:1" fill="#393838" d="M 76.5,11.5 C 76.6138,13.7179 77.2804,15.7179 78.5,17.5C 77.8826,17.3893 77.3826,17.056 77,16.5C 74.9125,21.3369 73.4125,26.3369 72.5,31.5C 71.7784,31.0825 71.2784,30.4158 71,29.5C 70.6174,30.056 70.1174,30.3893 69.5,30.5C 71.659,24.0147 73.9924,17.6814 76.5,11.5 Z"/></g>
<g><path style="opacity:0.6" fill="#7b7a7a" d="M 120.5,23.5 C 121.906,23.9731 122.573,24.9731 122.5,26.5C 121.094,26.0269 120.427,25.0269 120.5,23.5 Z"/></g>
<g><path style="opacity:0.482" fill="#848484" d="M 228.5,26.5 C 230.027,26.427 231.027,27.0937 231.5,28.5C 229.973,28.573 228.973,27.9063 228.5,26.5 Z"/></g>
<g><path style="opacity:0.592" fill="#585959" d="M 45.5,27.5 C 43.68,29.4611 41.68,29.7944 39.5,28.5C 41.5,28.1667 43.5,27.8333 45.5,27.5 Z"/></g>
<g><path style="opacity:0.981" fill="#454545" d="M 190.5,11.5 C 191.117,11.6107 191.617,11.944 192,12.5C 192.051,19.7445 192.217,26.9112 192.5,34C 192.333,36.1667 192.167,38.3333 192,40.5C 191.617,41.056 191.117,41.3893 190.5,41.5C 191.54,37.2201 191.706,32.8868 191,28.5C 186.947,28.7602 182.781,28.4268 178.5,27.5C 178.5,26.8333 178.5,26.1667 178.5,25.5C 182.167,25.5 185.833,25.5 189.5,25.5C 190.117,25.3893 190.617,25.056 191,24.5C 191.706,20.1132 191.54,15.7799 190.5,11.5 Z"/></g>
<g><path style="opacity:0.894" fill="#858584" d="M 269.5,29.5 C 270.167,29.5 270.833,29.5 271.5,29.5C 272.547,30.0778 272.38,30.7445 271,31.5C 270.283,30.9558 269.783,30.2891 269.5,29.5 Z"/></g>
<g><path style="opacity:0.612" fill="#6a6a6a" d="M 313.5,27.5 C 314.163,29.6413 314.497,31.9746 314.5,34.5C 314.471,37.2695 313.805,39.6028 312.5,41.5C 313.441,36.9296 313.774,32.263 313.5,27.5 Z"/></g>
<g><path style="opacity:0.663" fill="#5f6060" d="M 251.5,11.5 C 252.828,16.1194 253.494,21.1194 253.5,26.5C 253.494,31.8806 252.828,36.8806 251.5,41.5C 252.833,31.5 252.833,21.5 251.5,11.5 Z"/></g>
<g><path style="opacity:0.427" fill="#878585" d="M 346.5,27.5 C 343.833,27.5 341.167,27.5 338.5,27.5C 338.5,31.8333 338.5,36.1667 338.5,40.5C 337.514,36.03 337.181,31.3633 337.5,26.5C 340.713,26.19 343.713,26.5233 346.5,27.5 Z"/></g>
<g><path style="opacity:0.826" fill="#535252" d="M 71.5,33.5 C 75.3112,32.3547 79.3112,32.1881 83.5,33C 84.3366,34.0113 84.67,35.1779 84.5,36.5C 83.7326,35.828 83.0659,34.9947 82.5,34C 78.8484,33.5014 75.1817,33.3347 71.5,33.5 Z"/></g>
<g><path style="opacity:0.825" fill="#515050" d="M 397.5,30.5 C 397.351,31.552 397.517,32.552 398,33.5C 400.243,32.8629 402.576,32.5296 405,32.5C 407.61,32.5332 409.777,33.1999 411.5,34.5C 407.587,33.4042 403.587,33.2375 399.5,34C 397.738,36.4034 397.405,38.9034 398.5,41.5C 396.955,40.7703 396.122,39.437 396,37.5C 395.617,38.056 395.117,38.3893 394.5,38.5C 395.129,35.6027 396.129,32.936 397.5,30.5 Z"/></g>
<g><path style="opacity:0.906" fill="#6c6c6c" d="M 245.5,30.5 C 248.167,33.5 248.167,36.5 245.5,39.5C 245.5,36.5 245.5,33.5 245.5,30.5 Z"/></g>
<g><path style="opacity:0.42" fill="#777878" d="M 238.5,33.5 C 239.693,33.9704 240.36,34.9704 240.5,36.5C 240.48,37.7261 240.147,38.7261 239.5,39.5C 239.675,37.3792 239.341,35.3792 238.5,33.5 Z"/></g>
<g><path style="opacity:1" fill="#131313" d="M 224.5,36.5 C 224.427,38.0269 225.094,39.0269 226.5,39.5C 227.167,39.5 227.5,39.8333 227.5,40.5C 226.833,41.1667 226.167,41.8333 225.5,42.5C 225.5,43.1667 225.167,43.5 224.5,43.5C 223.167,41.1667 223.167,38.8333 224.5,36.5 Z"/></g>
<g><path style="opacity:0.251" fill="#999999" d="M 273.5,35.5 C 274.472,34.2486 275.139,34.582 275.5,36.5C 275.457,37.4164 275.124,38.0831 274.5,38.5C 274.737,37.209 274.404,36.209 273.5,35.5 Z"/></g>
<g><path style="opacity:1" fill="#4f4f4f" d="M 452.5,40.5 C 452.196,38.2043 451.196,37.871 449.5,39.5C 450.391,37.3911 451.558,35.3911 453,33.5C 453.5,34 454,34.5 454.5,35C 453.891,36.9483 453.224,38.7816 452.5,40.5 Z"/></g>
<g><path style="opacity:1" fill="#5d5c5c" d="M 68.5,34.5 C 68.3668,37.925 69.0335,38.2583 70.5,35.5C 70.3713,37.2161 70.038,38.8828 69.5,40.5C 68.7784,40.0825 68.2784,39.4158 68,38.5C 67.6174,39.056 67.1174,39.3893 66.5,39.5C 66.7959,37.597 67.4625,35.9303 68.5,34.5 Z"/></g>
<g><path style="opacity:0.569" fill="#7e7d7d" d="M 273.5,35.5 C 273.573,37.0269 272.906,38.0269 271.5,38.5C 271.427,36.9731 272.094,35.9731 273.5,35.5 Z"/></g>
<g><path style="opacity:0.906" fill="#6c6c6b" d="M 351.5,36.5 C 351.573,38.0269 350.906,39.0269 349.5,39.5C 349.427,37.9731 350.094,36.9731 351.5,36.5 Z"/></g>
<g><path style="opacity:1" fill="#1f1f1f" d="M 398.5,41.5 C 399.791,41.2627 400.791,41.596 401.5,42.5C 397.5,43.8333 393.5,43.8333 389.5,42.5C 391.662,41.8724 393.328,40.539 394.5,38.5C 395.117,38.3893 395.617,38.056 396,37.5C 396.122,39.437 396.955,40.7703 398.5,41.5 Z"/></g>
<g><path style="opacity:1" fill="#282828" d="M 69.5,40.5 C 70.9952,40.9887 72.3285,41.6554 73.5,42.5C 69.7016,43.4834 65.7016,43.8168 61.5,43.5C 61.5,43.1667 61.5,42.8333 61.5,42.5C 63.2202,41.6923 64.8869,40.6923 66.5,39.5C 67.1174,39.3893 67.6174,39.056 68,38.5C 68.2784,39.4158 68.7784,40.0825 69.5,40.5 Z"/></g>
<g><path style="opacity:0.675" fill="#767675" d="M 224.5,36.5 C 225.906,36.9731 226.573,37.9731 226.5,39.5C 225.094,39.0269 224.427,38.0269 224.5,36.5 Z"/></g>
<g><path style="opacity:1" fill="#4f4f4f" d="M 91.5,36.5 C 92.3077,38.2202 93.3077,39.8869 94.5,41.5C 91.9162,40.9517 90.9162,39.285 91.5,36.5 Z"/></g>
<g><path style="opacity:0.918" fill="#5a5a59" d="M 147.5,44.5 C 149.857,44.6633 152.19,44.4966 154.5,44C 152.509,43.6264 150.842,42.793 149.5,41.5C 150.93,41.4208 152.264,41.7542 153.5,42.5C 154.795,41.9017 156.128,41.4017 157.5,41C 159.706,38.794 161.873,36.6273 164,34.5C 164.5,34.8333 165,35.1667 165.5,35.5C 162.027,43.8653 156.027,46.8653 147.5,44.5 Z"/></g>
<g><path style="opacity:0.18" fill="#959595" d="M 39.5,40.5 C 40.7095,40.9321 41.7095,41.5987 42.5,42.5C 40.8212,42.7148 39.8212,42.0481 39.5,40.5 Z"/></g>
<g><path style="opacity:1" fill="#6e6d6e" d="M 56.5,40.5 C 57.7095,40.9321 58.7095,41.5987 59.5,42.5C 57.8212,42.7148 56.8212,42.0481 56.5,40.5 Z"/></g>
<g><path style="opacity:0.188" fill="#939292" d="M 198.5,40.5 C 199.71,40.9321 200.71,41.5987 201.5,42.5C 199.821,42.7148 198.821,42.0481 198.5,40.5 Z"/></g>
<g><path style="opacity:1" fill="#727172" d="M 208.5,40.5 C 207.817,42.1765 206.483,42.8432 204.5,42.5C 205.671,41.6554 207.005,40.9887 208.5,40.5 Z"/></g>
<g><path style="opacity:0.651" fill="#6b6a6a" d="M 224.5,36.5 C 223.167,38.8333 223.167,41.1667 224.5,43.5C 224.44,44.0431 224.107,44.3764 223.5,44.5C 222.741,41.8434 222.074,39.1767 221.5,36.5C 222.534,33.8753 223.534,33.8753 224.5,36.5 Z"/></g>
<g><path style="opacity:0.337" fill="#939291" d="M 338.5,40.5 C 340.717,41.3686 343.05,41.702 345.5,41.5C 344.551,42.1524 343.385,42.4857 342,42.5C 340.319,42.3917 339.152,41.7251 338.5,40.5 Z"/></g>
<g><path style="opacity:0.337" fill="#908f8f" d="M 438.5,40.5 C 440.717,41.3686 443.05,41.702 445.5,41.5C 444.551,42.1524 443.385,42.4857 442,42.5C 440.319,42.3917 439.152,41.7251 438.5,40.5 Z"/></g>
<g><path style="opacity:0.169" fill="#c5c4c3" d="M 59.5,42.5 C 60.1667,42.5 60.8333,42.5 61.5,42.5C 61.5,42.8333 61.5,43.1667 61.5,43.5C 60.8333,43.8333 60.1667,44.1667 59.5,44.5C 59.5,43.8333 59.5,43.1667 59.5,42.5 Z"/></g>
<g><path style="opacity:0.918" fill="#565656" d="M 239.5,39.5 C 239.244,41.7761 237.91,42.9428 235.5,43C 237.473,43.4955 239.473,43.6621 241.5,43.5C 239.945,44.6327 238.111,45.2994 236,45.5C 232.455,44.5955 228.955,43.5955 225.5,42.5C 226.167,41.8333 226.833,41.1667 227.5,40.5C 229.746,40.9361 231.913,41.6028 234,42.5C 236.018,41.7772 237.852,40.7772 239.5,39.5 Z"/></g>
<g><path style="opacity:0.675" fill="#5c5c5b" d="M 459.5,40.5 C 461.508,42.0826 463.841,43.0826 466.5,43.5C 462.785,43.423 459.119,43.7564 455.5,44.5C 455.5,43.5 455.5,42.5 455.5,41.5C 456.959,41.5674 458.292,41.2341 459.5,40.5 Z"/></g>
<g><path style="opacity:0.372" fill="#9c9d9d" d="M -0.5,42.5 C -0.166667,42.5 0.166667,42.5 0.5,42.5C 5.16667,43.8333 9.83333,43.8333 14.5,42.5C 15.0431,42.56 15.3764,42.8933 15.5,43.5C 10.2079,44.4948 4.8746,44.8282 -0.5,44.5C -0.5,43.8333 -0.5,43.1667 -0.5,42.5 Z"/></g>
<g><path style="opacity:0.378" fill="#929392" d="M 31.5,41.5 C 31.0825,42.2216 30.4158,42.7216 29.5,43C 34.0204,43.8136 38.3537,43.647 42.5,42.5C 43.0431,42.56 43.3764,42.8933 43.5,43.5C 38.533,44.6623 33.533,44.8289 28.5,44C 27.1667,43.3333 27.1667,42.6667 28.5,42C 29.448,41.5172 30.448,41.3505 31.5,41.5 Z"/></g>
<g><path style="opacity:0.388" fill="#929493" d="M 73.5,42.5 C 74.0431,42.56 74.3764,42.8933 74.5,43.5C 70.0162,44.8111 65.6829,44.8111 61.5,43.5C 65.7016,43.8168 69.7016,43.4834 73.5,42.5 Z"/></g>
<g><path style="opacity:0.4" fill="#949495" d="M 84.5,41.5 C 84.0825,42.2216 83.4158,42.7216 82.5,43C 87.1667,43.6667 91.8333,43.6667 96.5,43C 95.5842,42.7216 94.9175,42.2216 94.5,41.5C 95.5,41.5 96.5,41.5 97.5,41.5C 97.5,42.5 97.5,43.5 97.5,44.5C 92.1667,44.5 86.8333,44.5 81.5,44.5C 81.5,43.5 81.5,42.5 81.5,41.5C 82.5,41.5 83.5,41.5 84.5,41.5 Z"/></g>
<g><path style="opacity:0.363" fill="#979898" d="M 109.5,41.5 C 110.5,41.5 111.5,41.5 112.5,41.5C 112.5,42.5 112.5,43.5 112.5,44.5C 107.786,44.8266 103.12,44.4933 98.5,43.5C 98.6236,42.8933 98.9569,42.56 99.5,42.5C 103.311,43.6453 107.311,43.8119 111.5,43C 110.584,42.7216 109.918,42.2216 109.5,41.5 Z"/></g>
<g><path style="opacity:0.369" fill="#949594" d="M 170.5,41.5 C 170.082,42.2216 169.416,42.7216 168.5,43C 172.833,43.6667 177.167,43.6667 181.5,43C 180.584,42.7216 179.918,42.2216 179.5,41.5C 180.5,41.5 181.5,41.5 182.5,41.5C 182.5,42.5 182.5,43.5 182.5,44.5C 177.489,44.6659 172.489,44.4993 167.5,44C 166.167,43.3333 166.167,42.6667 167.5,42C 168.448,41.5172 169.448,41.3505 170.5,41.5 Z"/></g>
<g><path style="opacity:0.364" fill="#999999" d="M 187.5,42.5 C 192.167,43.8333 196.833,43.8333 201.5,42.5C 202.043,42.56 202.376,42.8933 202.5,43.5C 197.167,44.8333 191.833,44.8333 186.5,43.5C 186.624,42.8933 186.957,42.56 187.5,42.5 Z"/></g>
<g><path style="opacity:0.388" fill="#949595" d="M 274.5,38.5 C 274.5,40.5 274.5,42.5 274.5,44.5C 265.651,44.8264 256.984,44.493 248.5,43.5C 256.833,43.5 265.167,43.5 273.5,43.5C 273.216,41.5853 273.549,39.9187 274.5,38.5 Z"/></g>
<g><path style="opacity:0.369" fill="#9c9c9c" d="M 290.5,42.5 C 295.167,43.8333 299.833,43.8333 304.5,42.5C 305.043,42.56 305.376,42.8933 305.5,43.5C 300.167,44.8333 294.833,44.8333 289.5,43.5C 289.624,42.8933 289.957,42.56 290.5,42.5 Z"/></g>
<g><path style="opacity:0.369" fill="#9b9b9b" d="M 312.5,41.5 C 312.082,42.2216 311.416,42.7216 310.5,43C 315.352,43.8151 320.019,43.6484 324.5,42.5C 325.043,42.56 325.376,42.8933 325.5,43.5C 320.208,44.4948 314.875,44.8282 309.5,44.5C 309.5,43.5 309.5,42.5 309.5,41.5C 310.5,41.5 311.5,41.5 312.5,41.5 Z"/></g>
<g><path style="opacity:0.375" fill="#929392" d="M 329.5,41.5 C 329.389,42.1174 329.056,42.6174 328.5,43C 336.493,43.4997 344.493,43.6664 352.5,43.5C 344.344,44.6566 336.01,44.8232 327.5,44C 326.588,42.3745 327.255,41.5412 329.5,41.5 Z"/></g>
<g><path style="opacity:0.4" fill="#989999" d="M 356.5,42.5 C 361.167,43.8333 365.833,43.8333 370.5,42.5C 371.043,42.56 371.376,42.8933 371.5,43.5C 366.167,44.8333 360.833,44.8333 355.5,43.5C 355.624,42.8933 355.957,42.56 356.5,42.5 Z"/></g>
<g><path style="opacity:0.875" fill="#7f7e7e" d="M 380.5,43.5 C 382.565,43.5172 384.565,43.8505 386.5,44.5C 384.402,45.4845 382.402,45.1511 380.5,43.5 Z"/></g>
<g><path style="opacity:0.388" fill="#989999" d="M 389.5,42.5 C 393.5,43.8333 397.5,43.8333 401.5,42.5C 402.043,42.56 402.376,42.8933 402.5,43.5C 397.833,44.8333 393.167,44.8333 388.5,43.5C 388.624,42.8933 388.957,42.56 389.5,42.5 Z"/></g>
<g><path style="opacity:0.404" fill="#909191" d="M 412.5,41.5 C 412.082,42.2216 411.416,42.7216 410.5,43C 415.167,43.6667 419.833,43.6667 424.5,43C 423.584,42.7216 422.918,42.2216 422.5,41.5C 423.5,41.5 424.5,41.5 425.5,41.5C 425.5,42.5 425.5,43.5 425.5,44.5C 420.156,44.666 414.823,44.4994 409.5,44C 408.167,43.3333 408.167,42.6667 409.5,42C 410.448,41.5172 411.448,41.3505 412.5,41.5 Z"/></g>
<g><path style="opacity:0.375" fill="#979797" d="M 427.5,42.5 C 435.65,43.4927 443.983,43.8261 452.5,43.5C 443.991,44.8214 435.325,44.8214 426.5,43.5C 426.624,42.8933 426.957,42.56 427.5,42.5 Z"/></g>
</svg>
