<?xml version="1.0" encoding="UTF-8"?>
<!DOCTYPE svg PUBLIC "-//W3C//DTD SVG 1.1//EN" "http://www.w3.org/Graphics/SVG/1.1/DTD/svg11.dtd">
<svg xmlns="http://www.w3.org/2000/svg" version="1.1" width="1026px" height="91px" style="shape-rendering:geometricPrecision; text-rendering:geometricPrecision; image-rendering:optimizeQuality; fill-rule:evenodd; clip-rule:evenodd" xmlns:xlink="http://www.w3.org/1999/xlink">
<g><path style="opacity:0.991" fill="#fbfbfb" d="M 511.5,-0.5 C 682.833,-0.5 854.167,-0.5 1025.5,-0.5C 1025.5,29.8333 1025.5,60.1667 1025.5,90.5C 880.167,90.5 734.833,90.5 589.5,90.5C 589.5,61.1667 589.5,31.8333 589.5,2.5C 587.167,2.5 584.833,2.5 582.5,2.5C 582.5,31.8333 582.5,61.1667 582.5,90.5C 388.167,90.5 193.833,90.5 -0.5,90.5C -0.5,60.8333 -0.5,31.1667 -0.5,1.5C 170.503,2.16535 341.17,1.49869 511.5,-0.5 Z"/></g>
<g><path style="opacity:1" fill="#0c0c0c" d="M 307.5,9.5 C 318.565,9.46456 329.565,10.1312 340.5,11.5C 340.123,18.0822 341.123,24.4155 343.5,30.5C 342.127,30.6567 340.793,30.49 339.5,30C 336.167,22.6667 330.833,17.3333 323.5,14C 312.126,12.4457 304.959,17.279 302,28.5C 298.51,43.5621 300.844,57.5621 309,70.5C 322.853,80.0557 333.353,77.0557 340.5,61.5C 342.167,60.1667 343.833,60.1667 345.5,61.5C 338.571,78.0001 326.237,84.1668 308.5,80C 294.928,75.7595 287.094,66.5928 285,52.5C 281.536,32.0825 289.036,17.7492 307.5,9.5 Z"/></g>
<g><path style="opacity:1" fill="#0c0c0c" d="M 466.5,79.5 C 465.883,73.4018 466.55,67.7351 468.5,62.5C 471.314,68.8127 475.981,73.3127 482.5,76C 488.877,77.5207 494.377,76.0207 499,71.5C 501,67.8333 501,64.1667 499,60.5C 493.459,54.6435 486.959,50.1435 479.5,47C 469.065,41.6299 464.899,33.1299 467,21.5C 473.103,10.7064 482.27,6.87303 494.5,10C 499.018,13.2761 503.184,13.1094 507,9.5C 507.5,9.66667 508,9.83333 508.5,10C 509.471,15.0717 509.805,20.2384 509.5,25.5C 508.448,25.6495 507.448,25.4828 506.5,25C 501.759,14.866 494.092,11.5327 483.5,15C 479.06,19.1674 478.56,23.6674 482,28.5C 489.621,34.7833 497.787,40.2833 506.5,45C 518,55.4397 518.333,66.1063 507.5,77C 496.426,81.7395 485.426,81.5729 474.5,76.5C 471.826,77.5145 469.159,78.5145 466.5,79.5 Z"/></g>
<g><path style="opacity:1" fill="#818080" d="M 56.5,11.5 C 40.1667,11.5 23.8333,11.5 7.5,11.5C 7.5,12.5 7.5,13.5 7.5,14.5C 6.56552,13.4324 6.23219,12.099 6.5,10.5C 23.3417,10.1702 40.0084,10.5035 56.5,11.5 Z"/></g>
<g><path style="opacity:1" fill="#0c0c0c" d="M 166.5,10.5 C 169.898,10.1796 173.232,10.513 176.5,11.5C 183.612,30.0581 190.445,48.7248 197,67.5C 198.853,72.5266 202.353,75.5266 207.5,76.5C 207.5,77.5 207.5,78.5 207.5,79.5C 196.167,79.5 184.833,79.5 173.5,79.5C 173.5,78.5 173.5,77.5 173.5,76.5C 176.505,76.747 179.005,75.747 181,73.5C 181.489,68.2944 180.323,63.4611 177.5,59C 169.833,58.3333 162.167,58.3333 154.5,59C 151.913,63.5227 151.08,68.356 152,73.5C 154.757,75.7949 157.923,76.7949 161.5,76.5C 161.5,77.5 161.5,78.5 161.5,79.5C 152.5,79.5 143.5,79.5 134.5,79.5C 134.5,78.5 134.5,77.5 134.5,76.5C 139.577,76.0977 143.41,73.7643 146,69.5C 153.137,49.9225 159.97,30.2558 166.5,10.5 Z"/></g>
<g><path style="opacity:1" fill="#abaaaa" d="M 282.5,11.5 C 273.5,11.5 264.5,11.5 255.5,11.5C 255.5,12.5 255.5,13.5 255.5,14.5C 254.566,13.4324 254.232,12.099 254.5,10.5C 264.015,10.1731 273.348,10.5064 282.5,11.5 Z"/></g>
<g><path style="opacity:1" fill="#ababab" d="M 390.5,11.5 C 400.987,10.5056 411.654,10.1722 422.5,10.5C 422.768,12.099 422.434,13.4324 421.5,14.5C 421.5,13.5 421.5,12.5 421.5,11.5C 411.167,11.5 400.833,11.5 390.5,11.5 Z"/></g>
<g><path style="opacity:1" fill="#8a8a8a" d="M 674.5,14.5 C 674.5,13.5 674.5,12.5 674.5,11.5C 664.167,11.5 653.833,11.5 643.5,11.5C 643.5,12.5 643.5,13.5 643.5,14.5C 642.566,13.4324 642.232,12.099 642.5,10.5C 653.5,10.5 664.5,10.5 675.5,10.5C 675.768,12.099 675.434,13.4324 674.5,14.5 Z"/></g>
<g><path style="opacity:1" fill="#605f60" d="M 730.5,11.5 C 714.153,11.1672 697.82,11.5006 681.5,12.5C 681.863,13.1835 682.196,13.8501 682.5,14.5C 680.824,13.8166 680.157,12.4832 680.5,10.5C 697.342,10.1702 714.008,10.5035 730.5,11.5 Z"/></g>
<g><path style="opacity:1" fill="#7a7a7a" d="M 776.5,11.5 C 764.833,11.5 753.167,11.5 741.5,11.5C 741.5,12.5 741.5,13.5 741.5,14.5C 740.566,13.4324 740.232,12.099 740.5,10.5C 752.678,10.1716 764.678,10.5049 776.5,11.5 Z"/></g>
<g><path style="opacity:1" fill="#0b0b0b" d="M 882.5,78.5 C 870.784,79.1444 859.451,78.4777 848.5,76.5C 851.02,75.8115 853.52,74.8115 856,73.5C 856.206,68.3871 855.039,63.5538 852.5,59C 844.587,58.1859 836.754,58.3526 829,59.5C 826.741,63.5957 825.741,67.9291 826,72.5C 828.984,75.1001 832.484,76.1001 836.5,75.5C 836.5,76.5 836.5,77.5 836.5,78.5C 827.475,78.8315 818.475,78.4982 809.5,77.5C 810.602,76.8243 811.602,76.1577 812.5,75.5C 816.362,74.4763 819.195,72.1429 821,68.5C 827.469,49.4246 834.136,30.4246 841,11.5C 844.394,10.5442 847.894,10.2108 851.5,10.5C 858.224,29.8359 865.057,49.1692 872,68.5C 873.966,73.2273 877.466,75.5606 882.5,75.5C 882.5,76.5 882.5,77.5 882.5,78.5 Z"/></g>
<g><path style="opacity:1" fill="#8c8c8c" d="M 919.5,11.5 C 908.833,11.5 898.167,11.5 887.5,11.5C 887.5,12.5 887.5,13.5 887.5,14.5C 886.566,13.4324 886.232,12.099 886.5,10.5C 897.679,10.1721 908.679,10.5054 919.5,11.5 Z"/></g>
<g><path style="opacity:1" fill="#7e7d7d" d="M 981.5,11.5 C 969.833,11.5 958.167,11.5 946.5,11.5C 946.5,12.5 946.5,13.5 946.5,14.5C 945.566,13.4324 945.232,12.099 945.5,10.5C 957.678,10.1716 969.678,10.5049 981.5,11.5 Z"/></g>
<g><path style="opacity:1" fill="#070707" d="M 56.5,11.5 C 58.1179,16.2558 59.1179,21.2558 59.5,26.5C 56.5657,25.7106 54.7324,23.7106 54,20.5C 52.1266,18.2911 49.96,16.4578 47.5,15C 42.8333,14.3333 38.1667,14.3333 33.5,15C 32.6195,15.7083 31.9528,16.5416 31.5,17.5C 30.507,25.9839 30.1736,34.6506 30.5,43.5C 35.6946,43.8205 40.6946,43.4872 45.5,42.5C 48.8103,41.8565 50.8103,39.8565 51.5,36.5C 52.8142,38.9151 53.4809,41.7485 53.5,45C 53.4809,48.2515 52.8142,51.0849 51.5,53.5C 50.7735,50.7122 49.1068,48.7122 46.5,47.5C 41.3595,46.5119 36.0262,46.1786 30.5,46.5C 30.1736,55.3494 30.507,64.0161 31.5,72.5C 32.665,75.5902 34.9983,76.9236 38.5,76.5C 38.5,77.5 38.5,78.5 38.5,79.5C 28.1667,79.5 17.8333,79.5 7.5,79.5C 7.5,78.5 7.5,77.5 7.5,76.5C 10.617,76.3577 13.117,75.0244 15,72.5C 15.6667,54.5 15.6667,36.5 15,18.5C 13.346,15.7683 10.846,14.435 7.5,14.5C 7.5,13.5 7.5,12.5 7.5,11.5C 23.8333,11.5 40.1667,11.5 56.5,11.5 Z"/></g>
<g><path style="opacity:1" fill="#0d0d0d" d="M 66.5,11.5 C 79.5043,11.3334 92.5043,11.5001 105.5,12C 121.293,14.419 127.459,23.2523 124,38.5C 120.813,45.1868 115.646,49.5202 108.5,51.5C 112.752,58.3394 117.252,65.0061 122,71.5C 124.892,74.0574 128.059,76.224 131.5,78C 125.657,81.1786 119.657,81.1786 113.5,78C 105.323,72.1433 99.1567,64.6433 95,55.5C 93.5557,53.8446 91.7224,53.178 89.5,53.5C 89.3337,60.175 89.5004,66.8417 90,73.5C 91.995,75.747 94.495,76.747 97.5,76.5C 97.5,77.5 97.5,78.5 97.5,79.5C 86.8333,79.5 76.1667,79.5 65.5,79.5C 65.5,78.5 65.5,77.5 65.5,76.5C 68.374,76.3766 70.874,75.3766 73,73.5C 73.6667,54.8333 73.6667,36.1667 73,17.5C 71.4912,15.0807 69.3245,14.0807 66.5,14.5C 66.5,13.5 66.5,12.5 66.5,11.5 Z"/></g>
<g><path style="opacity:1" fill="#0b0b0b" d="M 255.5,14.5 C 255.5,13.5 255.5,12.5 255.5,11.5C 264.5,11.5 273.5,11.5 282.5,11.5C 282.5,12.5 282.5,13.5 282.5,14.5C 277.616,13.8606 273.783,15.5273 271,19.5C 270.5,39.4972 270.333,59.4972 270.5,79.5C 268.278,79.822 266.444,79.1554 265,77.5C 253.003,60.0102 240.836,42.6769 228.5,25.5C 228.44,24.9569 228.107,24.6236 227.5,24.5C 226.174,39.9948 226.174,55.3282 227.5,70.5C 227.511,72.0174 228.177,73.1841 229.5,74C 232.608,75.7585 235.941,76.5919 239.5,76.5C 239.5,77.5 239.5,78.5 239.5,79.5C 230.167,79.5 220.833,79.5 211.5,79.5C 211.5,78.1667 211.5,76.8333 211.5,75.5C 215.516,76.1001 219.016,75.1001 222,72.5C 222.667,54.8333 222.667,37.1667 222,19.5C 219.715,16.1078 216.548,14.4411 212.5,14.5C 212.5,13.5 212.5,12.5 212.5,11.5C 220.86,11.1688 229.193,11.5021 237.5,12.5C 246.754,26.0093 256.254,39.3426 266,52.5C 266.667,41.5 266.667,30.5 266,19.5C 265.5,17.6667 264.333,16.5 262.5,16C 260.187,15.338 257.854,14.838 255.5,14.5 Z"/></g>
<g><path style="opacity:1" fill="#0a0a0a" d="M 390.5,11.5 C 400.833,11.5 411.167,11.5 421.5,11.5C 421.5,12.5 421.5,13.5 421.5,14.5C 418.039,14.1459 415.539,15.4792 414,18.5C 413.333,36.5 413.333,54.5 414,72.5C 416.141,75.3208 418.975,76.6541 422.5,76.5C 422.5,77.5 422.5,78.5 422.5,79.5C 411.833,79.5 401.167,79.5 390.5,79.5C 390.5,78.5 390.5,77.5 390.5,76.5C 393.654,76.3406 396.154,75.0072 398,72.5C 398.5,64.1733 398.666,55.84 398.5,47.5C 390.5,47.5 382.5,47.5 374.5,47.5C 374.334,56.1731 374.5,64.8397 375,73.5C 376.995,75.747 379.495,76.747 382.5,76.5C 382.5,77.5 382.5,78.5 382.5,79.5C 371.833,79.5 361.167,79.5 350.5,79.5C 350.5,78.5 350.5,77.5 350.5,76.5C 353.505,76.747 356.005,75.747 358,73.5C 358.667,54.8333 358.667,36.1667 358,17.5C 356.005,15.253 353.505,14.253 350.5,14.5C 350.5,13.5 350.5,12.5 350.5,11.5C 361.167,11.5 371.833,11.5 382.5,11.5C 382.5,12.5 382.5,13.5 382.5,14.5C 379.348,13.9586 376.848,14.9586 375,17.5C 374.5,26.1603 374.334,34.8269 374.5,43.5C 382.5,43.5 390.5,43.5 398.5,43.5C 398.666,34.8269 398.5,26.1603 398,17.5C 395.581,15.4152 392.747,14.4152 389.5,14.5C 389.263,13.209 389.596,12.209 390.5,11.5 Z"/></g>
<g><path style="opacity:1" fill="#070707" d="M 427.5,11.5 C 438.167,11.5 448.833,11.5 459.5,11.5C 459.5,12.5 459.5,13.5 459.5,14.5C 456.348,13.9586 453.848,14.9586 452,17.5C 451.333,35.8333 451.333,54.1667 452,72.5C 453.539,75.5208 456.039,76.8541 459.5,76.5C 459.5,77.5 459.5,78.5 459.5,79.5C 448.833,79.5 438.167,79.5 427.5,79.5C 427.5,78.1667 427.5,76.8333 427.5,75.5C 430.97,76.1252 433.804,75.1252 436,72.5C 436.667,54.5 436.667,36.5 436,18.5C 434.043,15.558 431.21,14.2247 427.5,14.5C 427.5,13.5 427.5,12.5 427.5,11.5 Z"/></g>
<g><path style="opacity:1" fill="#0e0e0e" d="M 519.5,11.5 C 536.5,11.5 553.5,11.5 570.5,11.5C 571.569,16.1776 571.569,20.8442 570.5,25.5C 567.962,22.2807 565.296,19.114 562.5,16C 556.92,14.4826 551.253,14.1492 545.5,15C 545,15.5 544.5,16 544,16.5C 543.5,25.1603 543.334,33.8269 543.5,42.5C 549.262,42.8507 554.928,42.3507 560.5,41C 562.057,38.7045 563.724,36.5378 565.5,34.5C 566.496,40.4632 566.829,46.4632 566.5,52.5C 565.5,52.5 564.5,52.5 563.5,52.5C 563.607,50.0968 562.607,48.2635 560.5,47C 554.928,45.6493 549.262,45.1493 543.5,45.5C 543.334,54.8393 543.5,64.1726 544,73.5C 549.817,76.2008 555.65,76.0342 561.5,73C 565.081,69.252 568.081,65.0854 570.5,60.5C 571.325,59.6143 572.325,59.281 573.5,59.5C 571.635,66.0227 570.635,72.6894 570.5,79.5C 553.5,79.5 536.5,79.5 519.5,79.5C 519.5,78.5 519.5,77.5 519.5,76.5C 522.505,76.747 525.005,75.747 527,73.5C 527.667,54.8333 527.667,36.1667 527,17.5C 525.005,15.253 522.505,14.253 519.5,14.5C 519.5,13.5 519.5,12.5 519.5,11.5 Z"/></g>
<g><path style="opacity:1" fill="#0a0a0a" d="M 643.5,14.5 C 643.5,13.5 643.5,12.5 643.5,11.5C 653.833,11.5 664.167,11.5 674.5,11.5C 674.5,12.5 674.5,13.5 674.5,14.5C 671.348,13.9586 668.848,14.9586 667,17.5C 666.333,35.8333 666.333,54.1667 667,72.5C 669.113,74.7333 671.613,76.0666 674.5,76.5C 669.712,77.8279 664.546,78.4946 659,78.5C 653.454,78.4946 648.288,77.8279 643.5,76.5C 646.387,76.0666 648.887,74.7333 651,72.5C 651.5,64.1733 651.666,55.84 651.5,47.5C 643.5,47.5 635.5,47.5 627.5,47.5C 627.334,56.1731 627.5,64.8397 628,73.5C 630.135,75.2785 632.635,75.9452 635.5,75.5C 635.5,76.8333 635.5,78.1667 635.5,79.5C 624.833,79.5 614.167,79.5 603.5,79.5C 603.5,78.1667 603.5,76.8333 603.5,75.5C 606.272,75.78 608.772,75.1134 611,73.5C 611.667,54.5 611.667,35.5 611,16.5C 608.699,15.1328 606.199,14.4661 603.5,14.5C 603.5,13.5 603.5,12.5 603.5,11.5C 614.167,11.5 624.833,11.5 635.5,11.5C 635.5,12.5 635.5,13.5 635.5,14.5C 632.348,13.9586 629.848,14.9586 628,17.5C 627.5,26.1603 627.334,34.8269 627.5,43.5C 635.5,43.5 643.5,43.5 651.5,43.5C 651.666,34.8269 651.5,26.1603 651,17.5C 648.874,15.6234 646.374,14.6234 643.5,14.5 Z"/></g>
<g><path style="opacity:1" fill="#0d0d0d" d="M 730.5,11.5 C 731.99,15.942 732.99,20.6086 733.5,25.5C 732.448,25.6495 731.448,25.4828 730.5,25C 728.869,21.3788 726.535,18.3788 723.5,16C 717.92,14.4826 712.253,14.1492 706.5,15C 706,15.5 705.5,16 705,16.5C 704.5,24.8267 704.334,33.16 704.5,41.5C 710.176,41.6661 715.843,41.4994 721.5,41C 723.436,38.9632 725.102,36.7966 726.5,34.5C 727.833,40.5 727.833,46.5 726.5,52.5C 724.84,50.0069 722.84,47.8402 720.5,46C 715.177,45.5006 709.844,45.334 704.5,45.5C 704.334,54.8393 704.5,64.1726 705,73.5C 710.788,76.1326 716.621,75.9659 722.5,73C 726.386,68.6205 730.053,64.1205 733.5,59.5C 733.833,60 734.167,60.5 734.5,61C 733.274,64.4019 732.607,67.9019 732.5,71.5C 731.532,73.6074 731.198,75.9407 731.5,78.5C 714.82,78.8328 698.153,78.4995 681.5,77.5C 682.602,76.8243 683.602,76.1577 684.5,75.5C 686.017,75.4894 687.184,74.8228 688,73.5C 688.667,54.5 688.667,35.5 688,16.5C 686.275,15.536 684.441,14.8693 682.5,14.5C 682.196,13.8501 681.863,13.1835 681.5,12.5C 697.82,11.5006 714.153,11.1672 730.5,11.5 Z"/></g>
<g><path style="opacity:1" fill="#080808" d="M 776.5,11.5 C 798.736,14.144 804.736,25.3107 794.5,45C 790.635,47.0947 786.968,49.4281 783.5,52C 787.289,58.4091 791.456,64.5757 796,70.5C 799.116,73.4571 802.616,75.7905 806.5,77.5C 804.728,80.0077 802.228,81.0077 799,80.5C 790.299,79.6447 783.299,75.6447 778,68.5C 774.823,63.4718 771.656,58.4718 768.5,53.5C 767.081,52.5489 765.415,52.2155 763.5,52.5C 763.176,59.3543 763.509,66.021 764.5,72.5C 766.036,75.0922 768.369,76.0922 771.5,75.5C 771.5,76.8333 771.5,78.1667 771.5,79.5C 761.167,79.5 750.833,79.5 740.5,79.5C 740.5,78.1667 740.5,76.8333 740.5,75.5C 743.652,76.0414 746.152,75.0414 748,72.5C 748.667,54.1667 748.667,35.8333 748,17.5C 746.266,15.5494 744.099,14.5494 741.5,14.5C 741.5,13.5 741.5,12.5 741.5,11.5C 753.167,11.5 764.833,11.5 776.5,11.5 Z"/></g>
<g><path style="opacity:1" fill="#0c0c0c" d="M 919.5,11.5 C 919.5,12.5 919.5,13.5 919.5,14.5C 916.728,14.22 914.228,14.8866 912,16.5C 911.333,35.5 911.333,54.5 912,73.5C 913.822,75.0454 915.989,75.712 918.5,75.5C 921.567,75.3934 924.567,74.8934 927.5,74C 931.809,69.1609 935.976,64.3276 940,59.5C 940.5,59.8333 941,60.1667 941.5,60.5C 939.559,64.2639 938.559,68.2639 938.5,72.5C 937.539,74.2646 937.205,76.2646 937.5,78.5C 920.833,78.5 904.167,78.5 887.5,78.5C 887.5,77.5 887.5,76.5 887.5,75.5C 890.695,76.0393 893.195,75.0393 895,72.5C 895.667,54.1667 895.667,35.8333 895,17.5C 893.152,14.9586 890.652,13.9586 887.5,14.5C 887.5,13.5 887.5,12.5 887.5,11.5C 898.167,11.5 908.833,11.5 919.5,11.5 Z"/></g>
<g><path style="opacity:1" fill="#0c0c0c" d="M 981.5,11.5 C 1005.65,15.7651 1015.49,30.0984 1011,54.5C 1008.06,68.3981 999.557,76.5648 985.5,79C 976.801,79.2738 968.135,78.7738 959.5,77.5C 955.029,77.3821 950.696,78.0488 946.5,79.5C 945.571,78.3112 945.238,76.9778 945.5,75.5C 948.652,76.0414 951.152,75.0414 953,72.5C 953.667,54.1667 953.667,35.8333 953,17.5C 951.266,15.5494 949.099,14.5494 946.5,14.5C 946.5,13.5 946.5,12.5 946.5,11.5C 958.167,11.5 969.833,11.5 981.5,11.5 Z"/></g>
<g><path style="opacity:1" fill="#fbfbfb" d="M 89.5,15.5 C 107.098,14.334 113.598,22.334 109,39.5C 104.45,46.5237 97.9502,49.857 89.5,49.5C 89.5,38.1667 89.5,26.8333 89.5,15.5 Z"/></g>
<g><path style="opacity:1" fill="#f9f9f9" d="M 770.5,48.5 C 768.5,48.5 766.5,48.5 764.5,48.5C 764.5,37.5 764.5,26.5 764.5,15.5C 779.956,13.1208 786.789,19.7875 785,35.5C 783.129,43.2069 778.296,47.5402 770.5,48.5 Z"/></g>
<g><path style="opacity:1" fill="#fcfcfc" d="M 970.5,14.5 C 983.774,14.0585 991.607,20.3918 994,33.5C 995.055,43.9599 994.388,54.2932 992,64.5C 987.118,74.7896 979.785,77.4563 970,72.5C 969.18,53.0934 969.347,33.7601 970.5,14.5 Z"/></g>
<g><path style="opacity:1" fill="#a7a6a6" d="M 764.5,15.5 C 764.5,26.5 764.5,37.5 764.5,48.5C 766.5,48.5 768.5,48.5 770.5,48.5C 768.393,49.4682 766.059,49.8016 763.5,49.5C 763.172,37.9877 763.505,26.6544 764.5,15.5 Z"/></g>
<g><path style="opacity:1" fill="#bcbcbc" d="M 31.5,17.5 C 31.5,25.8333 31.5,34.1667 31.5,42.5C 36.1667,42.5 40.8333,42.5 45.5,42.5C 40.6946,43.4872 35.6946,43.8205 30.5,43.5C 30.1736,34.6506 30.507,25.9839 31.5,17.5 Z"/></g>
<g><path style="opacity:1" fill="#4d4d4d" d="M 228.5,25.5 C 227.504,40.324 227.171,55.324 227.5,70.5C 226.174,55.3282 226.174,39.9948 227.5,24.5C 228.107,24.6236 228.44,24.9569 228.5,25.5 Z"/></g>
<g><path style="opacity:1" fill="#f5f5f5" d="M 176.5,54.5 C 169.646,54.824 162.979,54.4907 156.5,53.5C 159.177,44.3016 162.343,35.3016 166,26.5C 169.607,35.8231 173.107,45.1565 176.5,54.5 Z"/></g>
<g><path style="opacity:1" fill="#f6f6f6" d="M 850.5,53.5 C 844.021,54.4907 837.354,54.824 830.5,54.5C 833.63,45.1096 836.964,35.7763 840.5,26.5C 844.231,35.3598 847.564,44.3598 850.5,53.5 Z"/></g>
<g><path style="opacity:1" fill="#a6a6a6" d="M 51.5,36.5 C 52.209,35.596 53.209,35.2627 54.5,35.5C 54.5,41.8333 54.5,48.1667 54.5,54.5C 53.209,54.7373 52.209,54.404 51.5,53.5C 52.8142,51.0849 53.4809,48.2515 53.5,45C 53.4809,41.7485 52.8142,38.9151 51.5,36.5 Z"/></g>
<g><path style="opacity:1" fill="#bdbdbd" d="M 46.5,47.5 C 41.5,47.5 36.5,47.5 31.5,47.5C 31.5,55.8333 31.5,64.1667 31.5,72.5C 30.507,64.0161 30.1736,55.3494 30.5,46.5C 36.0262,46.1786 41.3595,46.5119 46.5,47.5 Z"/></g>
<g><path style="opacity:1" fill="#717171" d="M 156.5,53.5 C 162.979,54.4907 169.646,54.824 176.5,54.5C 169.656,55.8188 162.656,55.8188 155.5,54.5C 155.624,53.8933 155.957,53.56 156.5,53.5 Z"/></g>
<g><path style="opacity:1" fill="#515151" d="M 850.5,53.5 C 851.043,53.56 851.376,53.8933 851.5,54.5C 844.344,55.8188 837.344,55.8188 830.5,54.5C 837.354,54.824 844.021,54.4907 850.5,53.5 Z"/></g>
<g><path style="opacity:1" fill="#989797" d="M 768.5,53.5 C 767.167,53.5 765.833,53.5 764.5,53.5C 764.5,59.8333 764.5,66.1667 764.5,72.5C 763.509,66.021 763.176,59.3543 763.5,52.5C 765.415,52.2155 767.081,52.5489 768.5,53.5 Z"/></g>
<g><path style="opacity:1" fill="#b5b4b4" d="M 468.5,62.5 C 466.55,67.7351 465.883,73.4018 466.5,79.5C 465.51,73.69 465.177,67.69 465.5,61.5C 466.791,61.2627 467.791,61.596 468.5,62.5 Z"/></g>
<g><path style="opacity:1" fill="#4d4d4d" d="M 643.5,76.5 C 648.288,77.8279 653.454,78.4946 659,78.5C 664.546,78.4946 669.712,77.8279 674.5,76.5C 675.404,77.209 675.737,78.209 675.5,79.5C 664.5,79.5 653.5,79.5 642.5,79.5C 642.263,78.209 642.596,77.209 643.5,76.5 Z"/></g>
<g><path style="opacity:1" fill="#5a5a5a" d="M 732.5,71.5 C 732.5,74.1667 732.5,76.8333 732.5,79.5C 715.167,79.5 697.833,79.5 680.5,79.5C 680.5,78.1667 680.5,76.8333 680.5,75.5C 681.833,75.5 683.167,75.5 684.5,75.5C 683.602,76.1577 682.602,76.8243 681.5,77.5C 698.153,78.4995 714.82,78.8328 731.5,78.5C 731.198,75.9407 731.532,73.6074 732.5,71.5 Z"/></g>
<g><path style="opacity:1" fill="#3e3d3d" d="M 812.5,75.5 C 811.602,76.1577 810.602,76.8243 809.5,77.5C 818.475,78.4982 827.475,78.8315 836.5,78.5C 827.348,79.4936 818.015,79.8269 808.5,79.5C 808.5,78.1667 808.5,76.8333 808.5,75.5C 809.833,75.5 811.167,75.5 812.5,75.5 Z"/></g>
<g><path style="opacity:1" fill="#3e3d3d" d="M 848.5,76.5 C 859.451,78.4777 870.784,79.1444 882.5,78.5C 871.012,79.4949 859.345,79.8283 847.5,79.5C 847.263,78.209 847.596,77.209 848.5,76.5 Z"/></g>
<g><path style="opacity:1" fill="#5b5b5b" d="M 938.5,72.5 C 938.5,74.8333 938.5,77.1667 938.5,79.5C 921.325,79.8299 904.325,79.4966 887.5,78.5C 904.167,78.5 920.833,78.5 937.5,78.5C 937.205,76.2646 937.539,74.2646 938.5,72.5 Z"/></g>
</svg>
